<?xml version="1.0" encoding="UTF-8" standalone="no"?>
<svg
   version="1.1"
   width="691.7973"
   height="333.15427"
   viewBox="54.29 101.43 691.7973 333.15427"
   xml:space="preserve"
   id="svg6647"
   sodipodi:docname="Mediamodifier-Design.svg"
   inkscape:export-filename="banner.svg"
   inkscape:export-xdpi="96"
   inkscape:export-ydpi="96"
   xmlns:inkscape="http://www.inkscape.org/namespaces/inkscape"
   xmlns:sodipodi="http://sodipodi.sourceforge.net/DTD/sodipodi-0.dtd"
   xmlns="http://www.w3.org/2000/svg"
   xmlns:svg="http://www.w3.org/2000/svg"><sodipodi:namedview
   id="namedview6649"
   pagecolor="#ffffff"
   bordercolor="#000000"
   borderopacity="0.25"
   inkscape:showpageshadow="2"
   inkscape:pageopacity="0.0"
   inkscape:pagecheckerboard="0"
   inkscape:deskcolor="#d1d1d1"
   showgrid="false" />
<desc
   id="desc6243">Created with Fabric.js 5.2.4</desc>
<defs
   id="defs6245" />


<g
   transform="matrix(0.87730173,0,0,0.91770613,398.57011,260.0817)"
   id="g6645">
<g
   vector-effect="non-scaling-stroke"
   id="g6643">
		<g
   transform="matrix(1.0149825,0,0,0.81852569,-11.798731,19.476919)"
   id="g6253">
<path
   style="opacity:1;fill:#f0f0f0;fill-rule:nonzero;stroke:none;stroke-width:1.0086;stroke-linecap:butt;stroke-linejoin:miter;stroke-miterlimit:4;stroke-dasharray:none;stroke-dashoffset:0"
   vector-effect="non-scaling-stroke"
   d="m 357.58451,116.38 c 67.02842,-140.35 -31.23042,-302.8 -189.08139,-315.35 -18.38298,-1.45996 -36.83342,-1.93066 -55.26869,-1.41 -160.302602,4.45 -211.461492,52.27 -251.26756,60.05 -39.80608,7.78 -128.46182,-23.38 -172.80495,8.87 -44.34313,32.25 -98.30971,179.88 -0.83417,285.67 97.47554,105.79 295.407244,-4 385.151473,6.67 89.744227,10.67 153.405457,53.52 219.396257,25.72 24.71985,-10.43 47.85274,-34.93 64.70903,-70.22 z"
   stroke-linecap="round"
   id="path6251" />
</g>
		
		<g
   transform="translate(-31.25,161.6)"
   id="g6261">
<path
   style="opacity:1;fill:#ffffff;fill-rule:nonzero;stroke:#263238;stroke-width:1;stroke-linecap:round;stroke-linejoin:round;stroke-miterlimit:4;stroke-dasharray:none;stroke-dashoffset:0"
   vector-effect="non-scaling-stroke"
   transform="translate(-351.2,-410.5)"
   d="m 342.28,426.91 h 17.85 v 4.61 h -17.85 z m 5.11,-37.43 h 7.64 v 37.43 h -7.64 z"
   stroke-linecap="round"
   id="path6259" />
</g>
		<g
   transform="translate(-31.25,164.13)"
   id="g6265">
<path
   style="opacity:1;fill:#ffffff;fill-rule:nonzero;stroke:#263238;stroke-width:1;stroke-linecap:round;stroke-linejoin:round;stroke-miterlimit:4;stroke-dasharray:none;stroke-dashoffset:0"
   vector-effect="non-scaling-stroke"
   transform="translate(-351.21,-413.02)"
   d="m 344.87,388.05 h 12.68 v 12.41 h -12.68 z m -15.51,43.19 h 43.7 c 2.76142,0 5,2.23858 5,5 V 438 h -53.7 v -1.71 c -0.0134,-1.33472 0.50754,-2.61938 1.44667,-3.5679 0.93913,-0.94852 2.21854,-1.48217 3.55333,-1.4821 z"
   stroke-linecap="round"
   id="path6263" />
</g>
		<g
   transform="translate(-31.25,129.52)"
   id="g6269">
<path
   style="opacity:1;fill:#0a3d62;fill-rule:nonzero;stroke:#263238;stroke-width:1;stroke-linecap:round;stroke-linejoin:round;stroke-miterlimit:4;stroke-dasharray:none;stroke-dashoffset:0"
   vector-effect="non-scaling-stroke"
   transform="translate(-351.21,-378.42)"
   d="m 354.76,380.64 c 0,4.07 -1.59,7.36 -3.55,7.36 -1.96,0 -3.55,-3.29 -3.55,-7.36 0,-4.07 2.13,-11.8 3.55,-11.8 1.42,0 3.55,7.73 3.55,11.8 z"
   stroke-linecap="round"
   id="path6267" />
</g>
		<g
   transform="translate(-31.25,133.52)"
   id="g6273">
<path
   style="opacity:1;fill:#ffffff;fill-rule:nonzero;stroke:#263238;stroke-width:1;stroke-linecap:round;stroke-linejoin:round;stroke-miterlimit:4;stroke-dasharray:none;stroke-dashoffset:0"
   vector-effect="non-scaling-stroke"
   transform="translate(-351.2,-382.41)"
   d="m 353.69,383.71 c 0,2.37 -1.11,4.29 -2.48,4.29 -1.37,0 -2.49,-1.92 -2.49,-4.29 0,-2.37 1.49,-6.88 2.49,-6.88 1,0 2.48,4.51 2.48,6.88 z"
   stroke-linecap="round"
   id="path6271" />
</g>
		<g
   transform="translate(-25.78,164.47)"
   id="g6277">
<path
   style="opacity:1;fill:#263238;fill-rule:nonzero;stroke:#263238;stroke-width:1;stroke-linecap:round;stroke-linejoin:round;stroke-miterlimit:4;stroke-dasharray:none;stroke-dashoffset:0"
   vector-effect="non-scaling-stroke"
   transform="translate(-356.68,-413.37)"
   d="m 354.99,409.29 h 3.37 v 8.16 h -3.37 z"
   stroke-linecap="round"
   id="path6275" />
</g>
		<g
   transform="translate(-233.18,115.86)"
   id="g6281">
<path
   style="opacity:1;fill:#ffffff;fill-rule:nonzero;stroke:#263238;stroke-width:1;stroke-linecap:round;stroke-linejoin:round;stroke-miterlimit:4;stroke-dasharray:none;stroke-dashoffset:0"
   vector-effect="non-scaling-stroke"
   transform="translate(-149.28,-364.76)"
   d="m 151.51,366.19 -3.1,0.67 -2.23,-2.86 6.2,-1.34 z"
   stroke-linecap="round"
   id="path6279" />
</g>
		<g
   transform="matrix(0.98,-0.21,0.21,0.98,-234.79,106.91)"
   id="g6285">
<path
   style="opacity:1;fill:#ffffff;fill-rule:nonzero;stroke:#263238;stroke-width:1;stroke-linecap:round;stroke-linejoin:round;stroke-miterlimit:4;stroke-dasharray:none;stroke-dashoffset:0"
   vector-effect="non-scaling-stroke"
   transform="translate(-147.66,-355.82)"
   d="m 144.49,348.33 h 6.34 v 14.99 h -6.34 z"
   stroke-linecap="round"
   id="path6283" />
</g>
		<g
   transform="translate(-241.73,114.88)"
   id="g6289">
<path
   style="opacity:1;fill:#ffffff;fill-rule:nonzero;stroke:#263238;stroke-width:1;stroke-linecap:round;stroke-linejoin:round;stroke-miterlimit:4;stroke-dasharray:none;stroke-dashoffset:0"
   vector-effect="non-scaling-stroke"
   transform="translate(-140.73,-363.78)"
   d="m 140.7,366.31 -2.83,-1.43 0.05,-3.63 5.67,2.84 z"
   stroke-linecap="round"
   id="path6287" />
</g>
		<g
   transform="matrix(0.89,0.45,-0.45,0.89,-238.25,106.9)"
   id="g6293">
<path
   style="opacity:1;fill:#ffffff;fill-rule:nonzero;stroke:#263238;stroke-width:1;stroke-linecap:round;stroke-linejoin:round;stroke-miterlimit:4;stroke-dasharray:none;stroke-dashoffset:0"
   vector-effect="non-scaling-stroke"
   transform="translate(-144.19,-355.81)"
   d="m 141.02,348.31 h 6.34 v 14.99 h -6.34 z"
   stroke-linecap="round"
   id="path6291" />
</g>
		<g
   transform="translate(-250.54,110.92)"
   id="g6297">
<path
   style="opacity:1;fill:#ffffff;fill-rule:nonzero;stroke:#263238;stroke-width:1;stroke-linecap:round;stroke-linejoin:round;stroke-miterlimit:4;stroke-dasharray:none;stroke-dashoffset:0"
   vector-effect="non-scaling-stroke"
   transform="translate(-131.92,-359.82)"
   d="m 131.89,362.35 -2.83,-1.42 0.05,-3.64 5.67,2.84 z"
   stroke-linecap="round"
   id="path6295" />
</g>
		<g
   transform="matrix(0.89,0.45,-0.45,0.89,-247.06,102.96)"
   id="g6301">
<path
   style="opacity:1;fill:#ffffff;fill-rule:nonzero;stroke:#263238;stroke-width:1;stroke-linecap:round;stroke-linejoin:round;stroke-miterlimit:4;stroke-dasharray:none;stroke-dashoffset:0"
   vector-effect="non-scaling-stroke"
   transform="translate(-135.38,-351.86)"
   d="m 132.21,344.36 h 6.34 v 14.99 h -6.34 z"
   stroke-linecap="round"
   id="path6299" />
</g>
		<g
   transform="translate(-269.28,148.89)"
   id="g6305">
<path
   style="opacity:1;fill:#263238;fill-rule:nonzero;stroke:#263238;stroke-width:1;stroke-linecap:round;stroke-linejoin:round;stroke-miterlimit:4;stroke-dasharray:none;stroke-dashoffset:0"
   vector-effect="non-scaling-stroke"
   transform="translate(-113.19,-397.8)"
   d="m 89.55,392.04 h 47.27 v 11.51 H 89.55 Z"
   stroke-linecap="round"
   id="path6303" />
</g>
		<g
   transform="translate(-243.14,179.1)"
   id="g6309">
<path
   style="opacity:1;fill:#ffffff;fill-rule:nonzero;stroke:#263238;stroke-width:1;stroke-linecap:round;stroke-linejoin:round;stroke-miterlimit:4;stroke-dasharray:none;stroke-dashoffset:0"
   vector-effect="non-scaling-stroke"
   transform="translate(-139.31,-428)"
   d="m 100.87,418 h 68.76 c 4.49008,0 8.13,3.63992 8.13,8.13 V 438 h -76.89 z"
   stroke-linecap="round"
   id="path6307" />
</g>
		<g
   transform="translate(-233.59,179.05)"
   id="g6313">
<path
   style="opacity:1;fill:none;fill-rule:nonzero;stroke:#263238;stroke-width:1;stroke-linecap:round;stroke-linejoin:round;stroke-miterlimit:4;stroke-dasharray:none;stroke-dashoffset:0"
   vector-effect="non-scaling-stroke"
   transform="translate(-148.87,-427.95)"
   d="M 177.15,427.95 H 120.58"
   stroke-linecap="round"
   id="path6311" />
</g>
		<g
   transform="translate(-225.84,117.7)"
   id="g6317">
<path
   style="opacity:1;fill:#263238;fill-rule:nonzero;stroke:#263238;stroke-width:1;stroke-linecap:round;stroke-linejoin:round;stroke-miterlimit:4;stroke-dasharray:none;stroke-dashoffset:0"
   vector-effect="non-scaling-stroke"
   transform="translate(-156.62,-366.6)"
   d="m 89.55,392.04 h 30.87 v 45.91 H 89.55 Z m 134.14,-90.48 -59.98,23.85 -2.49,-6.31 59.97,-23.85 z"
   stroke-linecap="round"
   id="path6315" />
</g>
		<g
   transform="matrix(0.93,-0.37,0.37,0.93,-181.08,57.97)"
   id="g6321">
<path
   style="opacity:1;fill:#ffffff;fill-rule:nonzero;stroke:#263238;stroke-width:1;stroke-linecap:round;stroke-linejoin:round;stroke-miterlimit:4;stroke-dasharray:none;stroke-dashoffset:0"
   vector-effect="non-scaling-stroke"
   transform="translate(-201.39,-306.85)"
   d="m 199.73,302.39 h 3.33 v 8.91 h -3.33 z"
   stroke-linecap="round"
   id="path6319" />
</g>
		<g
   transform="matrix(0.93,-0.37,0.37,0.93,-206.94,68.17)"
   id="g6325">
<path
   style="opacity:1;fill:#263238;fill-rule:nonzero;stroke:#263238;stroke-width:1;stroke-linecap:round;stroke-linejoin:round;stroke-miterlimit:4;stroke-dasharray:none;stroke-dashoffset:0"
   vector-effect="non-scaling-stroke"
   transform="translate(-175.51,-317.09)"
   d="m 161.48,310.49 h 28.06 v 13.2 h -28.06 z"
   stroke-linecap="round"
   id="path6323" />
</g>
		<g
   transform="translate(-257.07,115.76)"
   id="g6329">
<path
   style="opacity:1;fill:#ffffff;fill-rule:nonzero;stroke:#263238;stroke-width:1;stroke-linecap:round;stroke-linejoin:round;stroke-miterlimit:4;stroke-dasharray:none;stroke-dashoffset:0"
   vector-effect="non-scaling-stroke"
   transform="translate(-125.39,-364.66)"
   d="m 174.18,330.94 -8.61,12.63 -34.45,1.14 -41.62,72.62 c 0,0 -12.91,-19.8 -12.91,-29.27 v -0.29 c 0.04367,-7.52528 2.342658,-14.86461 6.6,-21.07 L 120.5,312 h 43.63 z"
   stroke-linecap="round"
   id="path6327" />
</g>
		<g
   transform="translate(-241.14,82.04)"
   id="g6333">
<path
   style="opacity:1;fill:none;fill-rule:nonzero;stroke:#263238;stroke-width:1;stroke-linecap:round;stroke-linejoin:round;stroke-miterlimit:4;stroke-dasharray:none;stroke-dashoffset:0"
   vector-effect="non-scaling-stroke"
   transform="translate(-141.31,-330.94)"
   d="M 174.18,330.94 H 108.45"
   stroke-linecap="round"
   id="path6331" />
</g>
		<g
   transform="translate(-255.65,99.38)"
   id="g6337">
<path
   style="opacity:1;fill:#263238;fill-rule:nonzero;stroke:#263238;stroke-width:1;stroke-linecap:round;stroke-linejoin:round;stroke-miterlimit:4;stroke-dasharray:none;stroke-dashoffset:0"
   vector-effect="non-scaling-stroke"
   transform="translate(-126.81,-348.28)"
   d="m 133.13,305.05 h 21.53 v 6.89 h -21.53 z m -43.44,86.46 c -1.971034,0.002 -3.790994,-1.0556 -4.763993,-2.76974 -0.972998,-1.71413 -0.948552,-3.81918 0.06399,-5.51026 L 106.5,347.23 c 1.54916,-2.59574 4.90926,-3.44416 7.505,-1.895 2.59574,1.54916 3.44416,4.90926 1.895,7.505 l -21.500003,36 c -0.990026,1.65758 -2.779273,2.67186 -4.71,2.67 z m 75.88,-47.94 -7.87,13.99 -27.61,-11.05 7.85,-13.07 z m -40.06,34.28 h 43.89 v 3.39 h -43.89 z"
   stroke-linecap="round"
   id="path6335" />
</g>
		<g
   transform="translate(-242.76,137.58)"
   id="g6341">
<path
   style="opacity:1;fill:#ffffff;fill-rule:nonzero;stroke:#263238;stroke-width:1;stroke-linecap:round;stroke-linejoin:round;stroke-miterlimit:4;stroke-dasharray:none;stroke-dashoffset:0"
   vector-effect="non-scaling-stroke"
   transform="translate(-139.69,-386.48)"
   d="m 125.51,381.39 h 28.37 v 10.17 h -28.37 z"
   stroke-linecap="round"
   id="path6339" />
</g>
		<g
   transform="matrix(0.99,-0.17,0.17,0.99,-270.25,157.41)"
   id="g6345">
<circle
   style="opacity:1;fill:#ffffff;fill-rule:nonzero;stroke:#263238;stroke-width:1;stroke-linecap:round;stroke-linejoin:round;stroke-miterlimit:4;stroke-dasharray:none;stroke-dashoffset:0"
   vector-effect="non-scaling-stroke"
   cx="0"
   cy="0"
   r="10.17"
   id="circle6343" />
</g>
		<g
   transform="translate(-252.86,148.56)"
   id="g6349">
<path
   style="opacity:1;fill:#ffffff;fill-rule:nonzero;stroke:#263238;stroke-width:1;stroke-linecap:round;stroke-linejoin:round;stroke-miterlimit:4;stroke-dasharray:none;stroke-dashoffset:0"
   vector-effect="non-scaling-stroke"
   transform="translate(-129.6,-397.46)"
   d="m 134.09,397.45 c -0.006,-2.47845 -2.0182,-4.48367 -4.49665,-4.48 -2.47845,0.004 -4.48517,2.01487 -4.48334,4.49333 0.002,2.47845 2.01153,4.48666 4.48999,4.48667 1.19256,0 2.33612,-0.47442 3.17845,-1.31862 0.84233,-0.84421 1.31421,-1.98883 1.31155,-3.18138 z"
   stroke-linecap="round"
   id="path6347" />
</g>
		<g
   transform="translate(262.64608,-58.55)"
   id="g6353">
<path
   style="opacity:1;fill:none;fill-rule:nonzero;stroke:#263238;stroke-width:4;stroke-linecap:butt;stroke-linejoin:miter;stroke-miterlimit:10;stroke-dasharray:none;stroke-dashoffset:0"
   vector-effect="non-scaling-stroke"
   transform="translate(-587.65,-190.86)"
   d="m 573.4,194.51 v -3.79 c 0,-1.93852 1.57148,-3.51 3.51,-3.51 h 25"
   stroke-linecap="round"
   id="path6351" />
</g>
		<g
   transform="translate(237.60608,21.3)"
   id="g6357">
<path
   style="opacity:1;fill:#ffffff;fill-rule:nonzero;stroke:#263238;stroke-width:1;stroke-linecap:round;stroke-linejoin:round;stroke-miterlimit:4;stroke-dasharray:none;stroke-dashoffset:0"
   vector-effect="non-scaling-stroke"
   transform="translate(-562.61,-270.7)"
   d="m 548.26,251.65 c 0.71504,0.88471 1.68048,1.53298 2.77,1.86 5.88,2.3 11.5,5.11 17.21,7.67 l -18.79,8.44 c -0.81521,0.29267 -1.38283,1.03645 -1.45,1.9 -0.0863,0.97738 0.50306,1.88827 1.43,2.21 l 18.81,8.44 -18.79,8.43 c -0.79993,0.29078 -1.36319,1.0133 -1.45,1.86 -0.0757,0.9676 0.51234,1.86399 1.43,2.18 l 20.9,9.38 v 29.56 h 6 v -21 c 0,-2.71 0.95,-5.43 0.26,-8.13 -1,-4 -6,-5.61 -10.17,-7.45 l -9.51,-4.21 -0.31,-0.14 18.27,-8.19 c 1.4,-0.63 2.65,-1.12 2.37,-2.61 -0.34,-1.79 -3.75,-2.52 -5.52,-3.33 l -6.26,-2.81 -6.16,-2.76 c -0.88281,-0.50119 -1.8101,-0.91964 -2.77,-1.25 l 7.5,-3.36 5.87,-2.64 c 1.3,-0.58 2.54,-1.25 3.87,-1.79 1.13,-0.45 2.73,-1.07 3.31,-2 0.78,-1.25 -0.79,-2.24 -2.05,-2.85 -1.72,-0.82 -3.52,-1.6 -5.27,-2.39 l -6,-2.68 -5.28,-2.37 c -0.70152,-0.39931 -1.43788,-0.73402 -2.2,-1 q 9.2,-4.12 18.42,-8.24 l 0.16,-0.07 c 1.5,-0.69 2.75,-1.56 2.22,-3 -0.64,-1.69 -3.48,-2.11 -5.26,-2.91 l -5.75,-2.58 -9.17,-4.12 -0.11,-0.05 8.8,-3.95 c 2.31,-1 4.79,-1.66 7.11,-2.71 2.6,-1.17 4.23,-2 4.23,-4.73 v -10.43 h -6 v 10.23 c 0,0.47 -5.19,2.33 -5.74,2.58 -4.69,2.11 -9.43,4.15 -14.18,6.19 -0.79156,0.28498 -1.53636,0.68603 -2.21,1.19 -1.37,1.16 -0.89,2.72 0.64,3.64 1.5005,0.74712 3.03929,1.41471 4.61,2 l 6.2,2.78 5.6,2.51 c 0.75226,0.42542 1.5423,0.78027 2.36,1.06 -6,2.71 -12.08,5.36 -18.07,8.11 -1.64,0.76 -2.82,2.03 -1.88,3.53 z"
   stroke-linecap="round"
   id="path6355" />
</g>
		<g
   transform="translate(237.51608,6.5)"
   id="g6361">
<path
   style="opacity:1;fill:none;fill-rule:nonzero;stroke:#263238;stroke-width:1;stroke-linecap:butt;stroke-linejoin:miter;stroke-miterlimit:10;stroke-dasharray:none;stroke-dashoffset:0"
   vector-effect="non-scaling-stroke"
   transform="translate(-562.52,-255.91)"
   d="m 556.82,229.64 -4.03,1.39 m 15.45,8.97 3.69,-1.93 m -15.62,12.52 -3.52,1.56 m 15.45,9.03 4.01,-1.75 m -15.72,12.24 -3.12,1.61 m 14.83,8.89 3.69,-1.85"
   stroke-linecap="round"
   id="path6359" />
</g>
		<g
   transform="translate(248.95608,-48.15)"
   id="g6365">
<path
   style="opacity:1;fill:#ffffff;fill-rule:nonzero;stroke:#263238;stroke-width:1;stroke-linecap:round;stroke-linejoin:round;stroke-miterlimit:4;stroke-dasharray:none;stroke-dashoffset:0"
   vector-effect="non-scaling-stroke"
   transform="translate(-573.96,-201.26)"
   d="m 581.53,194.65 h -15.14 v 2.83 h 2.2 v 8.33 c 0,1.13 1.23,2.05 2.74,2.05 h 5.25 c 1.51,0 2.74,-0.92 2.74,-2.05 v -8.33 h 2.21 z"
   stroke-linecap="round"
   id="path6363" />
</g>
		<g
   transform="translate(287.08608,-97.61)"
   id="g6369">
<path
   style="opacity:1;fill:#263238;fill-rule:nonzero;stroke:#263238;stroke-width:1;stroke-linecap:butt;stroke-linejoin:miter;stroke-miterlimit:10;stroke-dasharray:none;stroke-dashoffset:0"
   vector-effect="non-scaling-stroke"
   transform="translate(-612.09,-151.8)"
   d="m 606.52,149.2 h 11.14 v 5.2 h -11.14 z"
   stroke-linecap="round"
   id="path6367" />
</g>
		<g
   transform="translate(275.81608,-61.39)"
   id="g6373">
<path
   style="opacity:1;fill:#ffffff;fill-rule:nonzero;stroke:#263238;stroke-width:1;stroke-linecap:butt;stroke-linejoin:miter;stroke-miterlimit:10;stroke-dasharray:none;stroke-dashoffset:0"
   vector-effect="non-scaling-stroke"
   transform="translate(-600.82,-188.02)"
   d="m 597.17,181.71 h 7.31 v 12.62 h -7.31 z"
   stroke-linecap="round"
   id="path6371" />
</g>
		<g
   transform="translate(298.27608,-44.37)"
   id="g6377">
<path
   style="opacity:1;fill:#ffffff;fill-rule:nonzero;stroke:#263238;stroke-width:1;stroke-linecap:round;stroke-linejoin:round;stroke-miterlimit:4;stroke-dasharray:none;stroke-dashoffset:0"
   vector-effect="non-scaling-stroke"
   transform="translate(-623.28,-205.04)"
   d="m 640.69,232.57 h -20.28 v -63.69 c 7.6e-4,-3.06336 -1.68191,-5.87932 -4.38,-7.33 v -7.28 h -7.87 v 7.28 c -2.70038,1.44966 -4.38658,4.26511 -4.39,7.33 v 78.61 c 0,2.97245 1.58578,5.71911 4.16,7.20533 2.57422,1.48623 5.74578,1.48623 8.32,0 2.57422,-1.48622 4.16,-4.23288 4.16,-7.20533 v -10 h 22.37 c -0.84609,-1.57243 -1.5457,-3.21937 -2.09,-4.92 z"
   stroke-linecap="round"
   id="path6375" />
</g>
		<g
   transform="translate(284.28608,-34.04)"
   id="g6381">
<path
   style="opacity:1;fill:#ffffff;fill-rule:nonzero;stroke:#263238;stroke-width:1;stroke-linecap:butt;stroke-linejoin:miter;stroke-miterlimit:10;stroke-dasharray:none;stroke-dashoffset:0"
   vector-effect="non-scaling-stroke"
   transform="translate(-609.29,-215.37)"
   d="m 614.77,220.37 c -0.11,-0.81 -1.22,-1.14 -1.79,-1.51 l -2,-1.27 -2.9,-1.81 2.44,-1.52 1.91,-1.2 c 0.42,-0.26 0.82,-0.56 1.26,-0.8 0.4395,-0.19459 0.81173,-0.51464 1.07,-0.92 0.25,-0.56 -0.26,-1 -0.67,-1.28 -0.41,-0.28 -1.14,-0.73 -1.71,-1.09 l -1.94,-1.21 -1.71,-1.07 c -0.22357,-0.17481 -0.4649,-0.32564 -0.72,-0.45 l 6,-3.72 h 0.06 c 0.49,-0.32 0.89,-0.71 0.72,-1.35 -0.17,-0.64 -1.13,-1 -1.71,-1.32 l -1.87,-1.17 -3,-1.88 2.79,-1.8 c 0.75,-0.47 1.55,-0.75 2.3,-1.22 0.75,-0.47 1.38,-0.89 1.38,-2.14 v -2.89 c 0,-0.48535 -0.1928,-0.95081 -0.53599,-1.29401 C 613.80081,187.1128 613.33535,186.92 612.85,186.92 h -9.09 v 2.39 h 7.14 c 0.48535,0 0.95081,0.1928 1.29401,0.53599 0.34319,0.3432 0.53599,0.80866 0.53599,1.29401 v 0.41 c 0,0.21 -1.69,1.06 -1.86,1.17 q -2.29,1.43 -4.61,2.8 c -0.26832,0.13877 -0.51165,0.32127 -0.72,0.54 -0.20036,0.24114 -0.29154,0.55469 -0.25171,0.86568 0.0398,0.31098 0.20705,0.59144 0.46171,0.77432 0.47752,0.33062 0.97515,0.6312 1.49,0.9 l 2,1.26 1.82,1.14 c 0.06,0 0.7,0.52 0.77,0.48 -2,1.22 -3.93,2.42 -5.87,3.66 -0.60175,0.28124 -0.87846,0.98399 -0.63,1.6 0.20422,0.36766 0.51914,0.66159 0.9,0.84 1.92,1.05 3.74,2.32 5.6,3.47 l -6.11,3.82 c -0.29752,0.21641 -0.47354,0.5621 -0.47354,0.93 0,0.3679 0.17602,0.71359 0.47354,0.93 l 6.11,3.81 -6.11,3.82 c -0.28998,0.18122 -0.46726,0.49806 -0.47,0.84 -0.0584,0.39748 0.12668,0.79134 0.47,1 l 6.79,4.25 v 13.37 h 2 v -9.52 c 0.13658,-1.21847 0.16335,-2.44674 0.08,-3.67 -0.32,-1.79 -1.95,-2.54 -3.3,-3.37 l -3.09,-1.9 -0.1,-0.07 5.93,-3.7 c 0.43,-0.33 0.83,-0.59 0.74,-1.22 z"
   stroke-linecap="round"
   id="path6379" />
</g>
		<g
   transform="translate(343.47608,-68.11)"
   id="g6385">
<path
   style="opacity:1;fill:#263238;fill-rule:nonzero;stroke:#263238;stroke-width:1;stroke-linecap:round;stroke-linejoin:round;stroke-miterlimit:4;stroke-dasharray:none;stroke-dashoffset:0"
   vector-effect="non-scaling-stroke"
   transform="translate(-668.48,-181.3)"
   d="m 664.29,171.56 h 8.39 v 19.47 h -8.39 z"
   stroke-linecap="round"
   id="path6383" />
</g>
		<g
   transform="translate(343.47608,-25.61)"
   id="g6389">
<path
   style="opacity:1;fill:#ffffff;fill-rule:nonzero;stroke:#263238;stroke-width:1;stroke-linecap:round;stroke-linejoin:round;stroke-miterlimit:4;stroke-dasharray:none;stroke-dashoffset:0"
   vector-effect="non-scaling-stroke"
   transform="translate(-668.49,-223.8)"
   d="M 675,195.14 V 180.2 h -12.88 v 14.94 c -13.18534,2.96901 -22.61581,14.5905 -22.80601,28.10464 -0.19021,13.51415 8.90945,25.39644 22.00601,28.73536 v 12.36 c -0.0134,0.80428 0.29674,1.58025 0.8608,2.15372 0.56407,0.57347 1.33481,0.89639 2.1392,0.89628 h 8.33 c 1.66263,-0.0326 2.99489,-1.38706 3,-3.05 V 252 c 13.09656,-3.33892 22.19622,-15.22121 22.00601,-28.73536 C 697.46581,209.7505 688.03534,198.12901 674.85,195.16 Z"
   stroke-linecap="round"
   id="path6387" />
</g>
		<g
   transform="translate(343.50608,-70.03)"
   id="g6393">
<path
   style="opacity:1;fill:#0a3d62;fill-rule:nonzero;stroke:#263238;stroke-width:1;stroke-linecap:round;stroke-linejoin:round;stroke-miterlimit:4;stroke-dasharray:none;stroke-dashoffset:0"
   vector-effect="non-scaling-stroke"
   transform="translate(-668.51,-179.38)"
   d="m 659.81,176.09 h 17.41 v 6.57 h -17.41 z"
   stroke-linecap="round"
   id="path6391" />
</g>
		<g
   transform="translate(248.04608,97.38)"
   id="g6397">
<path
   style="opacity:1;fill:#ffffff;fill-rule:nonzero;stroke:#263238;stroke-width:1;stroke-linecap:round;stroke-linejoin:round;stroke-miterlimit:4;stroke-dasharray:none;stroke-dashoffset:0"
   vector-effect="non-scaling-stroke"
   transform="translate(-573.04,-346.79)"
   d="M 597.49,378.51 583.17,322.9 V 307.7 H 562.9 v 15.2 l -14.31,55.61 c -0.45426,1.7657 -0.0667,3.64223 1.04995,5.08348 1.11663,1.44125 2.83685,2.2853 4.66005,2.28652 h 37.48 c 1.8232,-10e-4 3.54342,-0.84527 4.66005,-2.28652 1.11662,-1.44125 1.50421,-3.31778 1.04995,-5.08348 z"
   stroke-linecap="round"
   id="path6395" />
</g>
		<g
   transform="translate(248.03608,116.56)"
   id="g6401">
<path
   style="opacity:1;fill:#2b8153;fill-rule:nonzero;stroke:#263238;stroke-width:1;stroke-linecap:round;stroke-linejoin:round;stroke-miterlimit:4;stroke-dasharray:none;stroke-dashoffset:0"
   vector-effect="non-scaling-stroke"
   transform="translate(-573.04,-365.97)"
   d="m 585.77,350.41 h -25.46 l -7.52,29.18 c -0.12447,0.4658 -0.0206,0.96302 0.28,1.34 0.28956,0.38628 0.74734,0.60958 1.23,0.6 h 37.48 c 0.48128,0.004 0.93677,-0.2172 1.23117,-0.59796 0.2944,-0.38076 0.39386,-0.87726 0.26883,-1.34204 z"
   stroke-linecap="round"
   id="path6399" />
</g>
		<g
   transform="translate(228.0586,140.28)"
   id="g6405">
<path
   style="opacity:1;fill:#263238;fill-rule:nonzero;stroke:#263238;stroke-width:1;stroke-linecap:round;stroke-linejoin:round;stroke-miterlimit:4;stroke-dasharray:none;stroke-dashoffset:0"
   vector-effect="non-scaling-stroke"
   transform="translate(-573.58,-389.69)"
   d="m 536.7,385.97 h 73.76 v 7.44 H 536.7 Z"
   stroke-linecap="round"
   id="path6403" />
</g>
		<g
   transform="translate(228.0586,165.38)"
   id="g6409">
<path
   style="opacity:1;fill:none;fill-rule:nonzero;stroke:#263238;stroke-width:3;stroke-linecap:round;stroke-linejoin:round;stroke-miterlimit:4;stroke-dasharray:none;stroke-dashoffset:0"
   vector-effect="non-scaling-stroke"
   transform="translate(-573.58,-414.79)"
   d="m 545.38,392.78 -8.06,44.02 m 64.46,-44.02 8.06,44.02"
   stroke-linecap="round"
   id="path6407" />
</g>
		<g
   transform="translate(343.52608,44.94)"
   id="g6413">
<path
   style="opacity:1;fill:#ffffff;fill-rule:nonzero;stroke:#263238;stroke-width:1;stroke-linecap:round;stroke-linejoin:round;stroke-miterlimit:4;stroke-dasharray:none;stroke-dashoffset:0"
   vector-effect="non-scaling-stroke"
   transform="translate(-668.54,-294.35)"
   d="m 682.7,275.67 v -11.81 c 0,-1.48786 -0.59105,-2.91479 -1.64313,-3.96687 C 680.00479,258.84105 678.57786,258.25 677.09,258.25 h -16.42 c -1.48786,0 -2.91479,0.59105 -3.96687,1.64313 -1.05208,1.05208 -1.64313,2.47901 -1.64313,3.96687 v 11.44 c -11.88392,6.17654 -18.04724,19.64167 -14.95526,32.67305 3.09199,13.03138 14.64757,22.2923 28.03955,22.47157 13.39198,0.17927 25.19132,-8.76901 28.63102,-21.71296 C 700.21501,295.78772 694.41433,282.16243 682.7,275.67 Z"
   stroke-linecap="round"
   id="path6411" />
</g>
		<g
   transform="matrix(0.44,-0.9,0.9,0.44,343.44608,135.63)"
   id="g6417">
<circle
   style="opacity:1;fill:#ffffff;fill-rule:nonzero;stroke:#263238;stroke-width:1;stroke-linecap:round;stroke-linejoin:round;stroke-miterlimit:4;stroke-dasharray:none;stroke-dashoffset:0"
   vector-effect="non-scaling-stroke"
   cx="0"
   cy="0"
   r="52.07"
   id="circle6415" />
</g>
		<g
   transform="translate(343.02608,81.5)"
   id="g6421">
<path
   style="opacity:1;fill:#0a3d62;fill-rule:nonzero;stroke:#263238;stroke-width:1;stroke-linecap:round;stroke-linejoin:round;stroke-miterlimit:4;stroke-dasharray:none;stroke-dashoffset:0"
   vector-effect="non-scaling-stroke"
   transform="translate(-668.04,-330.9)"
   d="m 656.2,328.32 h 23.67 v 5.17 H 656.2 Z"
   stroke-linecap="round"
   id="path6419" />
</g>
		<g
   transform="translate(343.54608,155.62)"
   id="g6425">
<path
   style="opacity:1;fill:#f6ad55;fill-rule:nonzero;stroke:#263238;stroke-width:1;stroke-linecap:round;stroke-linejoin:round;stroke-miterlimit:4;stroke-dasharray:none;stroke-dashoffset:0"
   vector-effect="non-scaling-stroke"
   transform="translate(-668.55,-405.03)"
   d="m 620.37,378 c -2.14024,18.53896 6.54641,36.66148 22.33899,46.60472 15.79258,9.94325 35.88944,9.94325 51.68202,0 C 710.18359,414.66148 718.87024,396.53896 716.73,378 Z"
   stroke-linecap="round"
   id="path6423" />
</g>
		<g
   transform="translate(329.45608,147.14)"
   id="g6429">
<path
   style="opacity:1;fill:none;fill-rule:nonzero;stroke:#263238;stroke-width:1;stroke-linecap:butt;stroke-linejoin:miter;stroke-miterlimit:10;stroke-dasharray:none;stroke-dashoffset:0"
   vector-effect="non-scaling-stroke"
   transform="translate(-654.45,-396.55)"
   d="m 661.93,401.52 c 0.004,1.4691 -0.8778,2.7958 -2.23392,3.3608 -1.35611,0.56501 -2.91907,0.25692 -3.95932,-0.78046 -1.04025,-1.03739 -1.35265,-2.5995 -0.79139,-3.95716 0.56127,-1.35767 1.88552,-2.24317 3.35463,-2.24318 1.99863,0.005 3.61903,1.62139 3.63,3.62 z m -14.49,2.27 c 0,1.28215 -0.77235,2.43804 -1.95689,2.9287 -1.18455,0.49065 -2.54802,0.21944 -3.45464,-0.68717 -0.90661,-0.90662 -1.17782,-2.27009 -0.68717,-3.45464 0.49066,-1.18454 1.64655,-1.95689 2.9287,-1.95689 1.75074,0 3.17,1.41926 3.17,3.17 z m 20.37,-14.72 c 0,1.62372 -1.31628,2.94 -2.94,2.94 -1.62372,0 -2.94,-1.31628 -2.94,-2.94 0,-1.62372 1.31628,-2.94 2.94,-2.94 0.77974,0 1.52754,0.30975 2.07889,0.86111 0.55136,0.55135 0.86111,1.29915 0.86111,2.07889 z"
   stroke-linecap="round"
   id="path6427" />
</g>
		<g
   transform="translate(347.10608,157.32)"
   id="g6433">
<circle
   style="opacity:1;fill:none;fill-rule:nonzero;stroke:#263238;stroke-width:1;stroke-linecap:butt;stroke-linejoin:miter;stroke-miterlimit:10;stroke-dasharray:none;stroke-dashoffset:0"
   vector-effect="non-scaling-stroke"
   cx="0"
   cy="0"
   r="2.49"
   id="circle6431" />
</g>
		<g
   transform="translate(327.22608,167.73)"
   id="g6437">
<path
   style="opacity:1;fill:none;fill-rule:nonzero;stroke:#263238;stroke-width:1;stroke-linecap:butt;stroke-linejoin:miter;stroke-miterlimit:10;stroke-dasharray:none;stroke-dashoffset:0"
   vector-effect="non-scaling-stroke"
   transform="translate(-652.23,-417.14)"
   d="m 654.23,417.14 c 0,1.10457 -0.89543,2 -2,2 -1.10457,0 -2,-0.89543 -2,-2 0,-1.10457 0.89543,-2 2,-2 1.10457,0 2,0.89543 2,2 z"
   stroke-linecap="round"
   id="path6435" />
</g>
		<g
   transform="translate(-161.47,173.78)"
   id="g6441">
<path
   style="opacity:1;fill:#ffffff;fill-rule:nonzero;stroke:#263238;stroke-width:1;stroke-linecap:round;stroke-linejoin:round;stroke-miterlimit:4;stroke-dasharray:none;stroke-dashoffset:0"
   vector-effect="non-scaling-stroke"
   transform="translate(-220.99,-422.67)"
   d="m 217.78,420.58 h 6.42 v 4.19 h -6.42 z"
   stroke-linecap="round"
   id="path6439" />
</g>
		<g
   transform="translate(-139.22,175.77)"
   id="g6445">
<path
   style="opacity:1;fill:#ffffff;fill-rule:nonzero;stroke:#263238;stroke-width:1;stroke-linecap:round;stroke-linejoin:round;stroke-miterlimit:4;stroke-dasharray:none;stroke-dashoffset:0"
   vector-effect="non-scaling-stroke"
   transform="translate(-243.24,-424.67)"
   d="M 297.05,437.95 H 189.43 l 10.76,-15.99 h 86.1 z m -93.79,-26.56 h 80.24 v 10.3 h -80.24 z"
   stroke-linecap="round"
   id="path6443" />
</g>
		<g
   transform="translate(-139.23,171.04)"
   id="g6449">
<path
   style="opacity:1;fill:#263238;fill-rule:nonzero;stroke:#263238;stroke-width:1;stroke-linecap:round;stroke-linejoin:round;stroke-miterlimit:4;stroke-dasharray:none;stroke-dashoffset:0"
   vector-effect="non-scaling-stroke"
   transform="translate(-243.23,-419.94)"
   d="m 208.92,418.09 h 6.1 v 3.7 h -6.1 z m 62.51,0 h 6.1 v 3.7 h -6.1 z"
   stroke-linecap="round"
   id="path6447" />
</g>
		<g
   transform="translate(-135.88,155.97)"
   id="g6453">
<path
   style="opacity:1;fill:#ffffff;fill-rule:nonzero;stroke:#263238;stroke-width:1;stroke-linecap:round;stroke-linejoin:round;stroke-miterlimit:4;stroke-dasharray:none;stroke-dashoffset:0"
   vector-effect="non-scaling-stroke"
   transform="translate(-246.57,-404.88)"
   d="m 243.46,402.84 h 6.23 v 4.07 h -6.23 z"
   stroke-linecap="round"
   id="path6451" />
</g>
		<g
   transform="translate(-137.88,107.39)"
   id="g6457">
<path
   style="opacity:1;fill:#263238;fill-rule:nonzero;stroke:#263238;stroke-width:1;stroke-linecap:round;stroke-linejoin:round;stroke-miterlimit:4;stroke-dasharray:none;stroke-dashoffset:0"
   vector-effect="non-scaling-stroke"
   transform="translate(-244.58,-356.29)"
   d="m 240.64,352.1 h 7.89 v 8.38 h -7.89 z"
   stroke-linecap="round"
   id="path6455" />
</g>
		<g
   transform="translate(-137.92,135.77)"
   id="g6461">
<path
   style="opacity:1;fill:#ffffff;fill-rule:nonzero;stroke:#263238;stroke-width:1;stroke-linecap:round;stroke-linejoin:round;stroke-miterlimit:4;stroke-dasharray:none;stroke-dashoffset:0"
   vector-effect="non-scaling-stroke"
   transform="translate(-244.54,-384.67)"
   d="m 266.07,406.08 -17.48,-32.51 v -15.31 h -8.13 v 15.31 L 223,406.08 c -0.46408,1.11232 -0.34244,2.38287 0.32426,3.38693 0.6667,1.00406 1.7905,1.60918 2.99574,1.61307 h 36.46 c 1.19992,-0.0138 2.31453,-0.62298 2.97414,-1.62542 0.65961,-1.00245 0.77799,-2.26714 0.31586,-3.37458 z"
   stroke-linecap="round"
   id="path6459" />
</g>
		<g
   transform="translate(-137.9,152.87)"
   id="g6465">
<path
   style="opacity:1;fill:#65c9ff;fill-rule:nonzero;stroke:#263238;stroke-width:1;stroke-linecap:round;stroke-linejoin:round;stroke-miterlimit:4;stroke-dasharray:none;stroke-dashoffset:0"
   vector-effect="non-scaling-stroke"
   transform="translate(-244.55,-401.77)"
   d="m 256.88,394.85 h -24.7 l -5.18,9.73 c -0.36286,0.90992 -0.25861,1.93968 0.27924,2.75842 0.53786,0.81873 1.44157,1.3233 2.42076,1.35158 h 29.7 c 0.98098,-0.0251 1.88767,-0.52836 2.42785,-1.3476 0.54018,-0.81923 0.64555,-1.85087 0.28215,-2.7624 z"
   stroke-linecap="round"
   id="path6463" />
</g>
		<g
   transform="translate(-31.14,23.83)"
   id="g6469">
<path
   style="opacity:1;fill:#263238;fill-rule:nonzero;stroke:#263238;stroke-width:1;stroke-linecap:round;stroke-linejoin:round;stroke-miterlimit:4;stroke-dasharray:none;stroke-dashoffset:0"
   vector-effect="non-scaling-stroke"
   transform="translate(-351.32,-272.73)"
   d="m 341.04,269.31 h 20.55 v 6.84 h -20.55 z"
   stroke-linecap="round"
   id="path6467" />
</g>
		<g
   transform="translate(-31.28,65.59)"
   id="g6473">
<path
   style="opacity:1;fill:#ffffff;fill-rule:nonzero;stroke:#263238;stroke-width:1;stroke-linecap:round;stroke-linejoin:round;stroke-miterlimit:4;stroke-dasharray:none;stroke-dashoffset:0"
   vector-effect="non-scaling-stroke"
   transform="translate(-351.18,-314.49)"
   d="M 361.41,292.89 V 276.15 H 341 v 16.74 c -9.708,4.11762 -16.0096,13.64486 -16,24.19 0,11.43 16.3,28.05 23.18,34.56 1.686,1.58493 4.314,1.58493 6,0 6.89,-6.51 23.18,-23.13 23.18,-34.56 0.0181,-10.53311 -6.26159,-20.05702 -15.95,-24.19 z"
   stroke-linecap="round"
   id="path6471" />
</g>
		<g
   transform="translate(-31.28,85.34)"
   id="g6477">
<path
   style="opacity:1;fill:#0a3d62;fill-rule:nonzero;stroke:#263238;stroke-width:1;stroke-linecap:round;stroke-linejoin:round;stroke-miterlimit:4;stroke-dasharray:none;stroke-dashoffset:0"
   vector-effect="non-scaling-stroke"
   transform="translate(-351.18,-334.24)"
   d="m 329,320.62 c 2.78,9.52 14.31,21.24 19.56,26.2 1.46942,1.39177 3.77058,1.39177 5.24,0 5.25,-5 16.79,-16.68 19.56,-26.2 z"
   stroke-linecap="round"
   id="path6475" />
</g>
		<g
   transform="translate(-26.1,80.14)"
   id="g6481">
<path
   style="opacity:1;fill:#ffffff;fill-rule:nonzero;stroke:#263238;stroke-width:1;stroke-linecap:round;stroke-linejoin:round;stroke-miterlimit:4;stroke-dasharray:none;stroke-dashoffset:0"
   vector-effect="non-scaling-stroke"
   transform="translate(-356.37,-329.03)"
   d="m 320.1,326.89 h 72.53 v 4.29 H 320.1 Z"
   stroke-linecap="round"
   id="path6479" />
</g>
		<g
   transform="rotate(90,-26.26,57.84)"
   id="g6485">
<path
   style="opacity:1;fill:#ffffff;fill-rule:nonzero;stroke:#263238;stroke-width:1;stroke-linecap:round;stroke-linejoin:round;stroke-miterlimit:4;stroke-dasharray:none;stroke-dashoffset:0"
   vector-effect="non-scaling-stroke"
   transform="translate(-414.04,-333)"
   d="m 315.92,330.86 h 196.24 v 4.29 H 315.92 Z"
   stroke-linecap="round"
   id="path6483" />
</g>
		<g
   transform="translate(30.08,80.13)"
   id="g6489">
<path
   style="opacity:1;fill:none;fill-rule:nonzero;stroke:#263238;stroke-width:2;stroke-linecap:round;stroke-linejoin:round;stroke-miterlimit:4;stroke-dasharray:none;stroke-dashoffset:0"
   vector-effect="non-scaling-stroke"
   transform="translate(-412.53,-329.03)"
   d="m 392.63,329.03 h 39.81"
   stroke-linecap="round"
   id="path6487" />
</g>
		<g
   transform="translate(31.11,131.56)"
   id="g6493">
<path
   style="opacity:1;fill:#263238;fill-rule:nonzero;stroke:#263238;stroke-width:1;stroke-linecap:round;stroke-linejoin:round;stroke-miterlimit:4;stroke-dasharray:none;stroke-dashoffset:0"
   vector-effect="non-scaling-stroke"
   transform="translate(-413.57,-380.46)"
   d="m 420.29,329.39 c 0,-3.55119 -2.87881,-6.43 -6.43,-6.43 -3.55119,0 -6.43,2.87881 -6.43,6.43 0,3.55119 2.87881,6.43 6.43,6.43 1.70534,0 3.34084,-0.67744 4.5467,-1.8833 1.20586,-1.20586 1.8833,-2.84136 1.8833,-4.5467 z m -37.17,100.83 h 60.91 v 7.73 h -60.91 z"
   stroke-linecap="round"
   id="path6491" />
</g>
		<g
   transform="translate(-84.17,56.76)"
   id="g6497">
<path
   style="opacity:1;fill:none;fill-rule:nonzero;stroke:#263238;stroke-width:4;stroke-linecap:round;stroke-linejoin:round;stroke-miterlimit:4;stroke-dasharray:none;stroke-dashoffset:0"
   vector-effect="non-scaling-stroke"
   transform="translate(-298.3,-305.65)"
   d="m 244.59,356.29 v -1.57 c 0,-3.30725 1.3138,-6.47904 3.65238,-8.81762 2.33858,-2.33858 5.51037,-3.65238 8.81762,-3.65238 h 34.51 c 2.96247,0 5.8036,-1.17684 7.89838,-3.27162 2.09478,-2.09478 3.27162,-4.93591 3.27162,-7.89838 v -66.27 c 0,-2.5982 1.03281,-5.08984 2.87096,-6.92611 1.83814,-1.83627 4.33084,-2.86654 6.92904,-2.86389 H 343 c 4.97056,0 9,4.02944 9,9 v 8.7"
   stroke-linecap="round"
   id="path6495" />
</g>
		<g
   transform="translate(-72.78,148.41)"
   id="g6501">
<path
   style="opacity:1;fill:#ffffff;fill-rule:nonzero;stroke:#263238;stroke-width:1;stroke-linecap:butt;stroke-linejoin:miter;stroke-miterlimit:10;stroke-dasharray:none;stroke-dashoffset:0"
   vector-effect="non-scaling-stroke"
   transform="translate(-309.68,-397.31)"
   d="m 315.08,407.79 v -51.13 h -10.8 v 51.13 c -7.07294,2.61538 -11.25496,9.92343 -9.92649,17.34649 1.32846,7.42306 7.78549,12.8271 15.32649,12.8271 7.541,0 13.99803,-5.40404 15.32649,-12.8271 1.32847,-7.42306 -2.85355,-14.73111 -9.92649,-17.34649 z"
   stroke-linecap="round"
   id="path6499" />
</g>
		<g
   transform="translate(-72.78,178.48)"
   id="g6505">
<path
   style="opacity:1;fill:#0a3d62;fill-rule:nonzero;stroke:#263238;stroke-width:1;stroke-linecap:round;stroke-linejoin:round;stroke-miterlimit:4;stroke-dasharray:none;stroke-dashoffset:0"
   vector-effect="non-scaling-stroke"
   transform="translate(-309.68,-427.38)"
   d="m 296.35,418.44 c -1.69823,5.69521 0.40937,11.84024 5.24558,15.29429 4.83621,3.45404 11.33263,3.45404 16.16884,0 4.83621,-3.45405 6.94381,-9.59908 5.24558,-15.29429 z"
   stroke-linecap="round"
   id="path6503" />
</g>
		<g
   transform="matrix(1.2165979,0,0,1.2165979,92.426073,152.89391)"
   id="g6509">
<path
   style="opacity:1;fill:#ffffff;fill-rule:nonzero;stroke:#263238;stroke-width:1;stroke-linecap:round;stroke-linejoin:round;stroke-miterlimit:4;stroke-dasharray:none;stroke-dashoffset:0"
   vector-effect="non-scaling-stroke"
   transform="translate(-471.44,-408.32)"
   d="m 467.1,381 h 8.68 v 50.65 c 0,2.20914 -1.79086,4 -4,4 h -0.62 c -2.20914,0 -4,-1.79086 -4,-4 V 381 Z"
   stroke-linecap="round"
   id="path6507" />
</g>
		<g
   transform="matrix(1.2165979,0,0,1.2165979,92.426073,162.87001)"
   id="g6513">
<path
   style="opacity:1;fill:#f6ad55;fill-rule:nonzero;stroke:#263238;stroke-width:1;stroke-linecap:round;stroke-linejoin:round;stroke-miterlimit:4;stroke-dasharray:none;stroke-dashoffset:0"
   vector-effect="non-scaling-stroke"
   transform="translate(-471.45,-416.52)"
   d="m 467.1,397.52 v 33.86 c 0.11127,2.31871 2.02362,4.14149 4.345,4.14149 2.32138,0 4.23373,-1.82278 4.345,-4.14149 v -33.86 z"
   stroke-linecap="round"
   id="path6511" />
</g>
		<g
   transform="matrix(1.2165979,0,0,1.2165979,92.426073,123.12375)"
   id="g6517">
<path
   style="opacity:1;fill:#263238;fill-rule:nonzero;stroke:#263238;stroke-width:1;stroke-linecap:round;stroke-linejoin:round;stroke-miterlimit:4;stroke-dasharray:none;stroke-dashoffset:0"
   vector-effect="non-scaling-stroke"
   transform="translate(-471.44,-383.85)"
   d="m 465.57,379.76 h 11.75 v 8.17 h -11.75 z"
   stroke-linecap="round"
   id="path6515" />
</g>
		<g
   transform="matrix(1.2165979,0,0,1.2165979,112.98658,152.94257)"
   id="g6521">
<path
   style="opacity:1;fill:#ffffff;fill-rule:nonzero;stroke:#263238;stroke-width:1;stroke-linecap:round;stroke-linejoin:round;stroke-miterlimit:4;stroke-dasharray:none;stroke-dashoffset:0"
   vector-effect="non-scaling-stroke"
   transform="translate(-488.34,-408.36)"
   d="m 488.33,435.72 v 0 c -2.39692,0 -4.34,-1.94308 -4.34,-4.34 V 381 h 8.69 v 50.34 c 0.0107,1.15969 -0.44321,2.27542 -1.26044,3.09829 -0.81724,0.82287 -1.92982,1.28443 -3.08956,1.28171 z"
   stroke-linecap="round"
   id="path6519" />
</g>
		<g
   transform="matrix(1.2165979,0,0,1.2165979,112.99874,162.87001)"
   id="g6525">
<path
   style="opacity:1;fill:#0a3d62;fill-rule:nonzero;stroke:#263238;stroke-width:1;stroke-linecap:round;stroke-linejoin:round;stroke-miterlimit:4;stroke-dasharray:none;stroke-dashoffset:0"
   vector-effect="non-scaling-stroke"
   transform="translate(-488.35,-416.52)"
   d="m 484,397.52 v 33.86 c 0.11127,2.31871 2.02362,4.14149 4.345,4.14149 2.32138,0 4.23373,-1.82278 4.345,-4.14149 v -33.86 z"
   stroke-linecap="round"
   id="path6523" />
</g>
		<g
   transform="matrix(1.2165979,0,0,1.2165979,122.31788,152.18828)"
   id="g6529">
<path
   style="opacity:1;fill:#ffffff;fill-rule:nonzero;stroke:#263238;stroke-width:1;stroke-linecap:round;stroke-linejoin:round;stroke-miterlimit:4;stroke-dasharray:none;stroke-dashoffset:0"
   vector-effect="non-scaling-stroke"
   transform="translate(-496.01,-407.74)"
   d="m 482.46,379.76 h 11.75 v 8.17 h -11.75 z m 22.76,55.96 v 0 c -2.39692,0 -4.34,-1.94308 -4.34,-4.34 V 381 h 8.68 v 50.34 c 0.0107,1.15795 -0.44186,2.27215 -1.25693,3.09473 -0.81506,0.82258 -1.92507,1.28532 -3.08307,1.28527 z"
   stroke-linecap="round"
   id="path6527" />
</g>
		<g
   transform="matrix(1.2165979,0,0,1.2165979,133.52275,162.99167)"
   id="g6533">
<path
   style="opacity:1;fill:#2b8153;fill-rule:nonzero;stroke:#263238;stroke-width:1;stroke-linecap:round;stroke-linejoin:round;stroke-miterlimit:4;stroke-dasharray:none;stroke-dashoffset:0"
   vector-effect="non-scaling-stroke"
   transform="translate(-505.22,-416.62)"
   d="m 500.88,397.52 v 33.86 c 0,2.39692 1.94308,4.34 4.34,4.34 v 0 c 2.39692,0 4.34,-1.94308 4.34,-4.34 v -33.86 z"
   stroke-linecap="round"
   id="path6531" />
</g>
		<g
   transform="matrix(1.2165979,0,0,1.2165979,133.53492,123.12375)"
   id="g6537">
<path
   style="opacity:1;fill:#263238;fill-rule:nonzero;stroke:#263238;stroke-width:1;stroke-linecap:round;stroke-linejoin:round;stroke-miterlimit:4;stroke-dasharray:none;stroke-dashoffset:0"
   vector-effect="non-scaling-stroke"
   transform="translate(-505.23,-383.85)"
   d="m 499.35,379.76 h 11.75 v 8.17 h -11.75 z"
   stroke-linecap="round"
   id="path6535" />
</g>
		<g
   transform="matrix(1.2165979,0,0,1.2165979,154.07109,152.94257)"
   id="g6541">
<path
   style="opacity:1;fill:#ffffff;fill-rule:nonzero;stroke:#263238;stroke-width:1;stroke-linecap:round;stroke-linejoin:round;stroke-miterlimit:4;stroke-dasharray:none;stroke-dashoffset:0"
   vector-effect="non-scaling-stroke"
   transform="translate(-522.11,-408.36)"
   d="m 522.11,435.72 v 0 c -1.15104,0 -2.25494,-0.45725 -3.06884,-1.27116 -0.81391,-0.8139 -1.27116,-1.9178 -1.27116,-3.06884 V 381 h 8.68 v 50.34 c 0.0107,1.15795 -0.44186,2.27215 -1.25693,3.09473 -0.81506,0.82258 -1.92507,1.28532 -3.08307,1.28527 z"
   stroke-linecap="round"
   id="path6539" />
</g>
		<g
   transform="matrix(1.2165979,0,0,1.2165979,154.07109,162.99167)"
   id="g6545">
<path
   style="opacity:1;fill:#65c9ff;fill-rule:nonzero;stroke:#263238;stroke-width:1;stroke-linecap:round;stroke-linejoin:round;stroke-miterlimit:4;stroke-dasharray:none;stroke-dashoffset:0"
   vector-effect="non-scaling-stroke"
   transform="translate(-522.11,-416.62)"
   d="m 517.77,397.52 v 33.86 c 0,2.39692 1.94308,4.34 4.34,4.34 2.39692,0 4.34,-1.94308 4.34,-4.34 v -33.86 z"
   stroke-linecap="round"
   id="path6543" />
</g>
		<g
   transform="matrix(1.2165979,0,0,1.2165979,125.04306,153.55087)"
   id="g6549">
<path
   style="opacity:1;fill:#ffffff;fill-rule:nonzero;stroke:#263238;stroke-width:1;stroke-linecap:round;stroke-linejoin:round;stroke-miterlimit:4;stroke-dasharray:none;stroke-dashoffset:0"
   vector-effect="non-scaling-stroke"
   transform="translate(-498.25,-408.86)"
   d="m 516.24,379.76 h 11.75 v 8.17 h -11.75 z m 19.09,51.95 h -79.3 v 6.24 h 84.44 V 392.34 H 459.7 v 2.57 h 75.63 z"
   stroke-linecap="round"
   id="path6547" />
</g>
		<g
   transform="translate(-336.89,87.13)"
   id="g6553">
<path
   style="opacity:1;fill:#ffffff;fill-rule:nonzero;stroke:#263238;stroke-width:1;stroke-linecap:butt;stroke-linejoin:miter;stroke-miterlimit:10;stroke-dasharray:none;stroke-dashoffset:0"
   vector-effect="non-scaling-stroke"
   transform="translate(-45.56,-336.02)"
   d="M 34.34,437.37 H 57.07 V 240.66 l 0.08,-0.03 1.65,-5.95 H 32.33 l 2.01,6.07 z"
   stroke-linecap="round"
   id="path6551" />
</g>
		<g
   transform="translate(-336.75,186.41)"
   id="g6557">
<path
   style="opacity:1;fill:#ffffff;fill-rule:nonzero;stroke:#263238;stroke-width:1;stroke-linecap:butt;stroke-linejoin:miter;stroke-miterlimit:10;stroke-dasharray:none;stroke-dashoffset:0"
   vector-effect="non-scaling-stroke"
   transform="translate(-45.71,-435.31)"
   d="m 25.24,432.66 h 40.94 v 5.29 H 25.24 Z"
   stroke-linecap="round"
   id="path6555" />
</g>
		<g
   transform="translate(-342.37,90.59)"
   id="g6561">
<path
   style="opacity:1;fill:none;fill-rule:nonzero;stroke:#263238;stroke-width:1;stroke-linecap:round;stroke-linejoin:round;stroke-miterlimit:4;stroke-dasharray:none;stroke-dashoffset:0"
   vector-effect="non-scaling-stroke"
   transform="translate(-40.09,-339.5)"
   d="m 37.62,250.21 h 4.94 m -4.94,7.77 h 4.94 m -4.94,7.76 h 4.94 m -4.94,7.76 h 4.94 m -4.94,7.77 h 4.94 m -4.94,7.76 h 4.94 m -4.94,7.76 h 4.94 m -4.94,7.77 h 4.94 m -4.94,7.76 h 4.94 m -4.94,7.77 h 4.94 m -4.94,7.76 h 4.94 m -4.94,7.76 h 4.94 m -4.94,7.77 h 4.94 m -4.94,7.76 h 4.94 m -4.94,7.76 h 4.94 m -4.94,7.77 h 4.94 m -4.94,7.76 h 4.94 m -4.94,7.77 h 4.94 m -4.94,7.76 h 4.94 m -4.94,7.76 h 4.94 m -4.94,7.77 h 4.94 m -4.94,7.76 h 4.94 m -4.94,7.77 h 4.94 m -4.94,7.76 h 4.94"
   stroke-linecap="round"
   id="path6559" />
</g>
		<g
   transform="translate(-267.56,-35.368489)"
   id="g6565">
<path
   style="opacity:1;fill:none;fill-rule:nonzero;stroke:#263238;stroke-width:1;stroke-linecap:butt;stroke-linejoin:miter;stroke-miterlimit:10;stroke-dasharray:none;stroke-dashoffset:0"
   vector-effect="non-scaling-stroke"
   transform="translate(-97.32,-176.94)"
   d="m 70.39,168.6 6.94,12.03 h 24.31 l 12.15,-21.05 -12.15,-21.05 H 77.33 l -12.15,21.05 3.53,6.11 m 60.68,36.2 h 8.68 l 12.15,-21.05 -12.15,-21.05 h -24.31 l -12.15,21.05 12.15,21.05 h 12.46 m -12.61,-0.2 -12.15,-21.05 H 77.15 L 65,201.69 77.15,222.74 h 24.31 z m 24.46,-41.9 6.23,-13.41 m -6.23,55.51 10.33,19.76 M 65.18,159.58 H 44.43 m 69.72,-38.77 2.2,-3.12 m -14.71,20.84 10.61,-15.03 m -35.1,99.24 -11.85,13.45"
   stroke-linecap="round"
   id="path6563" />
</g>
		<g
   transform="matrix(1,0,0,0.88976914,-65.21,-110.36094)"
   id="g6569">
<path
   style="opacity:1;fill:#263238;fill-rule:nonzero;stroke:none;stroke-width:1;stroke-linecap:butt;stroke-linejoin:miter;stroke-miterlimit:4;stroke-dasharray:none;stroke-dashoffset:0"
   vector-effect="non-scaling-stroke"
   transform="translate(-299.67,-111.53)"
   d="m 299.685,103.682 c -3.17594,-0.004 -6.0414,1.90598 -7.25958,4.839 -1.21818,2.93302 -0.54904,6.31108 1.69526,8.55824 2.24429,2.24716 5.6215,2.92061 8.55607,1.70617 2.93457,-1.21445 4.84825,-4.07747 4.84825,-7.25341 0,-4.33153 -3.50847,-7.84448 -7.84,-7.85 z"
   stroke-linecap="round"
   id="path6567" />
</g>
		<g
   transform="translate(-66.8,-110.9652)"
   id="g6573">
<path
   style="opacity:1;fill:#263238;fill-rule:nonzero;stroke:none;stroke-width:0.87;stroke-linecap:butt;stroke-linejoin:miter;stroke-miterlimit:4;stroke-dasharray:none;stroke-dashoffset:0"
   vector-effect="non-scaling-stroke"
   transform="translate(-298.07,-112.24)"
   d="m 339.056,121.78 c -6e-4,-1.83725 -1.61069,-3.32649 -3.597,-3.327 -0.39869,0.003 -0.79407,0.0671 -1.17,0.19 -1.06971,-2.18952 -2.27057,-4.32217 -3.597,-6.388 8.41,-13.12 10.262,-25.79 3.445,-32.08 -4.21,-3.894 -11.036,-4.734 -18.987,-2.97 -4.272,-6.448 -9.74,-10.325 -15.695,-10.325 -2.75877,0.01773 -5.45117,0.784456 -7.743,2.205 -0.87351,-0.895012 -2.20026,-1.285699 -3.47234,-1.022498 -1.27208,0.263201 -2.29247,1.139525 -2.67053,2.293493 -0.37807,1.153968 -0.0553,2.406848 0.84487,3.279005 -0.98351,1.124886 -1.88485,2.309179 -2.698,3.545 -7.95,-1.764 -14.777,-0.924 -18.987,2.97 -6.817,6.297 -4.964,18.943 3.427,32.055 -2.29643,3.5148 -4.18077,7.24626 -5.621,11.131 -1.09155,2.90191 -1.75421,5.92694 -1.97,8.993 -1.99973,0.0759 -3.55435,1.63675 -3.47234,3.48635 0.082,1.8496 1.76961,3.28751 3.76934,3.21165 0.16274,-0.005 0.32501,-0.0194 0.486,-0.042 0.63603,2.00536 1.79738,3.83446 3.381,5.325 2.789,2.587 6.755,3.893 11.585,3.893 2.50259,-0.0253 4.99319,-0.32407 7.42,-0.89 4.272,6.423 9.731,10.283 15.676,10.283 5.946,0 11.432,-3.877 15.704,-10.325 2.43109,0.5616 4.92445,0.86026 7.43,0.89 4.721,0 8.723,-1.24 11.548,-3.851 4.56,-4.218 5.243,-11.265 2.698,-19.402 1.38171,-0.50922 2.28226,-1.75234 2.266,-3.128 z M 322.48,77.08 c 4.497,0 8.302,1.173 10.973,3.644 6.485,5.998 4.704,18.061 -3.319,30.699 -1.96114,-2.95734 -4.13049,-5.79212 -6.494,-8.486 -1.133,-9.925 -4.038,-18.66 -8.094,-25.059 2.27116,-0.508249 4.59744,-0.775969 6.934,-0.798 z m -6.206,50.749 c -5.06523,4.73113 -10.72722,8.8816 -16.864,12.362 -6.13377,-3.48086 -11.79504,-7.62836 -16.863,-12.354 -2.28782,-2.11564 -4.45827,-4.33715 -6.503,-6.656 -0.64754,-5.95264 -0.64754,-11.95036 0,-17.903 2.04341,-2.3199 4.21392,-4.541476 6.503,-6.656 5.06576,-4.723314 10.72744,-8.865744 16.863,-12.338 6.13591,3.472195 11.79793,7.614627 16.864,12.338 2.29001,2.113705 4.46057,4.33533 6.503,6.656 0.64754,5.95264 0.64754,11.95036 0,17.903 -2.04519,2.31339 -4.21563,4.52955 -6.503,6.64 z m 6.296,-5.15 c -1.214,9.41 -4.03,17.67 -7.888,23.694 -5.05633,-1.28445 -9.89817,-3.20469 -14.39,-5.707 6.03229,-3.47181 11.60454,-7.58479 16.603,-12.255 1.98157,-1.82825 3.8811,-3.74346 5.693,-5.74 z m -24.023,17.97 c -3.624,1.9938 -7.46105,3.63585 -11.45,4.9 -0.99388,0.30241 -1.9952,0.57983 -3.003,0.832 -3.85,-6.023 -6.665,-14.276 -7.88,-23.686 1.8,1.939 3.652,3.86 5.676,5.74 5.02328,4.65774 10.61985,8.7544 16.675,12.206 z M 275.01,120 c -2.1154,-2.48064 -4.06503,-5.07848 -5.838,-7.779 1.77687,-2.69983 3.72947,-5.29728 5.847,-7.778 -0.25091,2.5881 -0.37706,5.18677 -0.378,7.787 0,2.653 0.153,5.233 0.387,7.762 z m 1.205,-18.228 c 1.214,-9.401 4.03,-17.654 7.879,-23.677 5.07485,1.276726 9.93306,3.200153 14.435,5.715 -6.04806,3.455793 -11.63316,7.560958 -16.639,12.23 q -2.986,2.787 -5.657,5.724 z m 24.04,-17.962 c 4.50225,-2.514925 9.36081,-4.438354 14.436,-5.715 3.85,6.023 6.665,14.276 7.88,23.685 -1.8,-1.946 -3.652,-3.868 -5.676,-5.74 -5.00159,-4.668894 -10.58037,-8.776532 -16.621,-12.238 z m 23.53,20.608 c 2.11387,2.48113 4.06312,5.07856 5.837,7.778 -1.77216,2.69813 -3.72183,5.29302 -5.838,7.77 0.243,-2.495 0.378,-5.116 0.378,-7.77 -0.002,-2.5972 -0.12853,-5.19281 -0.378,-7.778 z M 287.062,74.135 c 0.58973,0.359409 1.28077,0.550341 1.987,0.549 0.95425,0 1.86941,-0.350628 2.54417,-0.974749 0.67476,-0.624121 1.05383,-1.470611 1.05383,-2.353251 -0.003,-0.552277 -0.15387,-1.095261 -0.44,-1.58 2.13048,-1.319548 4.63021,-2.036737 7.194,-2.064 5.604,0 10.793,3.636 14.832,9.7 -5.21752,1.339294 -10.20905,3.34136 -14.832,5.949 -4.62312,-2.606067 -9.61375,-4.608041 -14.83,-5.949 0.75199,-1.141308 1.58376,-2.235971 2.49,-3.277 z m -21.703,6.589 c 2.698,-2.496 6.476,-3.644 10.982,-3.644 2.33495,0.03379 4.65819,0.312919 6.925,0.832 -4.047,6.397 -6.952,15.133 -8.095,25.05 -2.36856,2.69081 -4.54357,5.52257 -6.511,8.477 -7.996,-12.67 -9.768,-24.725 -3.301,-30.715 z m 0,62.987 c -1.46753,-1.38193 -2.54547,-3.07627 -3.139,-4.934 1.56121,-0.52147 2.53413,-1.96314 2.35491,-3.48949 -0.17922,-1.52635 -1.46407,-2.74121 -3.10991,-2.94051 0.21384,-2.98431 0.86098,-5.92841 1.924,-8.753 1.3638,-3.6866 3.13623,-7.23281 5.289,-10.582 1.96604,2.95868 4.13795,5.796 6.502,8.494 1.134,9.917 4.039,18.652 8.095,25.05 -7.753,1.68 -14.049,0.715 -17.916,-2.845 z m 34.051,13.045 c -5.594,0 -10.73,-3.62 -14.804,-9.651 0.9,-0.225 1.799,-0.483 2.797,-0.774 4.20301,-1.3352 8.24015,-3.08107 12.043,-5.208 4.61367,2.59722 9.59259,4.59337 14.796,5.932 -4.075,6.065 -9.228,9.7 -14.832,9.7 z m 34.043,-13.045 c -3.957,3.668 -10.38,4.467 -17.898,2.845 4.047,-6.39 6.952,-15.125 8.094,-25.05 2.36364,-2.69658 4.53298,-5.53404 6.494,-8.494 1.22338,1.92352 2.33431,3.90637 3.328,5.94 -1.42541,0.77122 -2.10025,2.34092 -1.63665,3.80694 0.4636,1.46601 1.9466,2.45191 3.59665,2.39106 0.17779,-0.008 0.35502,-0.0251 0.531,-0.05 2.519,7.829 1.844,14.592 -2.509,18.61 z"
   stroke-linecap="round"
   id="path6571" />
</g>
		<g
   transform="matrix(0.94642539,0,0,0.94642539,31.025621,-66.921427)"
   id="g6577">
<path
   style="opacity:1;fill:none;fill-rule:nonzero;stroke:#263238;stroke-width:1;stroke-linecap:butt;stroke-linejoin:miter;stroke-miterlimit:10;stroke-dasharray:none;stroke-dashoffset:0"
   vector-effect="non-scaling-stroke"
   transform="translate(-428.42,-150.14)"
   d="m 401.65,168.3 c 6.1,3.55 13.68,4.64 22.18,3.11 4.41239,-0.80041 8.70178,-2.17194 12.76,-4.08 l 0.16,-0.08 0.11,-0.05 0.11,-0.06 0.15,-0.07 c 3.98053,-2.0782 7.67748,-4.65934 11,-7.68 6.37,-5.84 10.1,-12.52 11,-19.53 6.11,3.55 13.69,4.63 22.19,3.11 4.60524,-0.82888 9.07405,-2.28933 13.28,-4.34 l -1.85,-3.55 c -1.93913,0.93893 -3.94451,1.7344 -6,2.38 l -12.86,-26 c 1.76499,-1.24351 3.61635,-2.35967 5.54,-3.34 l -1.7,-3.62 c -4.18458,2.10302 -8.05799,4.77503 -11.51,7.94 -6.36,5.83 -10.1,12.52 -11,19.53 -6.11,-3.56 -13.69,-4.64 -22.18,-3.11 -4.4343,0.82013 -8.74355,2.21173 -12.82,4.14 l -0.13,0.06 -0.11,0.06 -0.11,0.06 -0.14,0.06 c -3.98265,2.07874 -7.67994,4.66348 -11,7.69 -6.37,5.84 -10.1,12.52 -11,19.53 -6.1,-3.55 -13.68,-4.63 -22.18,-3.11 -4.60822,0.82973 -9.08023,2.29011 -13.29,4.34 l 1.86,3.55 c 1.62019,-0.7973 3.29036,-1.48875 5,-2.07 l 13,26.23 c -1.50701,1.02101 -3.07678,1.94617 -4.7,2.77 l 1.7,3.62 c 4.18068,-2.10447 8.05059,-4.77639 11.5,-7.94 6.39,-5.85 10.16,-12.54 11.04,-19.55 z m 13.56,-27.51 12.65,25.55 c -2.95584,0.87005 -5.99664,1.41987 -9.07,1.64 L 408.4,147 c 2.03925,-2.30969 4.32255,-4.39182 6.81,-6.21 z m 6.54,-4.1 c 1.20146,-0.58508 2.4332,-1.10582 3.69,-1.56 l 13.12,26.49 c -1.83,1.15 -3.17,1.84 -3.55,2 -1.57529,0.76289 -3.19486,1.43075 -4.85,2 l -13,-26.21 c 1.47232,-1.00065 3.00526,-1.90906 4.59,-2.72 z m 18.8,23.59 -12.84,-25.93 c 3.35226,-1.07229 6.81976,-1.74363 10.33,-2 l 10.39,21 c -2.34081,2.61607 -4.98629,4.94262 -7.88,6.93 z m 43.81,-22.14 c -2.54331,0.68842 -5.14407,1.14363 -7.77,1.36 l -10.51,-21.22 c 1.76416,-1.95787 3.70208,-3.75187 5.79,-5.36 z M 464.42,120.29 474,139.6 c -5.36946,0.15535 -10.64075,-1.46117 -15,-4.6 0.14388,-5.36518 2.0484,-10.5341 5.42,-14.71 z m -9.15,16.56 c -0.13857,5.23756 -1.96211,10.29087 -5.2,14.41 l -9.41,-19 c 5.23721,-0.0832 10.36135,1.52662 14.61,4.59 z m -48.52,12.2 9.42,19 c -5.23999,0.081 -10.36544,-1.53627 -14.61,-4.61 0.13572,-5.23032 1.95594,-10.27715 5.19,-14.39 z m -8.91,16.24 c -0.13349,5.20405 -1.93535,10.22754 -5.14,14.33 l -9.38,-18.93 c 5.20895,-0.0695 10.30127,1.54381 14.52,4.6 z m -26.51,-2.82 c 3.05141,-0.91269 6.19337,-1.48944 9.37,-1.72 l 10.35,20.91 c -2.08937,2.39463 -4.43695,4.55104 -7,6.43 z"
   stroke-linecap="round"
   id="path6575" />
</g>
		<g
   transform="matrix(0.23,-0.97,0.97,0.23,112.14,-7.11)"
   id="g6581">
<circle
   style="opacity:1;fill:none;fill-rule:nonzero;stroke:#263238;stroke-width:1;stroke-linecap:butt;stroke-linejoin:miter;stroke-miterlimit:10;stroke-dasharray:none;stroke-dashoffset:0"
   vector-effect="non-scaling-stroke"
   cx="0"
   cy="0"
   r="12.82"
   id="circle6579" />
</g>
		<g
   transform="translate(127.37,-48.36)"
   id="g6585">
<path
   style="opacity:1;fill:none;fill-rule:nonzero;stroke:#263238;stroke-width:1;stroke-linecap:butt;stroke-linejoin:miter;stroke-miterlimit:10;stroke-dasharray:none;stroke-dashoffset:0"
   vector-effect="non-scaling-stroke"
   transform="translate(-492.25,-192.28)"
   d="m 525.17,192.28 c 0,2.80292 -1.68844,5.32985 -4.278,6.40249 -2.58957,1.07263 -5.57028,0.47973 -7.55225,-1.50224 -1.98197,-1.98197 -2.57487,-4.96268 -1.50224,-7.55225 1.07264,-2.58956 3.59957,-4.278 6.40249,-4.278 3.82733,0 6.93,3.10267 6.93,6.93 z M 468.35,194 c 0,1.82412 -1.09883,3.46863 -2.7841,4.1667 -1.68527,0.69806 -3.6251,0.3122 -4.91495,-0.97765 -1.28985,-1.28985 -1.67571,-3.22968 -0.97765,-4.91495 0.69807,-1.68527 2.34258,-2.7841 4.1667,-2.7841 2.4908,0 4.51,2.0192 4.51,4.51 z"
   stroke-linecap="round"
   id="path6583" />
</g>
		<g
   transform="translate(152.66,39.65)"
   id="g6589">
<circle
   style="opacity:1;fill:none;fill-rule:nonzero;stroke:#263238;stroke-width:1;stroke-linecap:butt;stroke-linejoin:miter;stroke-miterlimit:10;stroke-dasharray:none;stroke-dashoffset:0"
   vector-effect="non-scaling-stroke"
   cx="0"
   cy="0"
   r="5.54"
   id="circle6587" />
</g>
		<g
   transform="translate(77.13,17.47)"
   id="g6593">
<circle
   style="opacity:1;fill:none;fill-rule:nonzero;stroke:#263238;stroke-width:1;stroke-linecap:butt;stroke-linejoin:miter;stroke-miterlimit:10;stroke-dasharray:none;stroke-dashoffset:0"
   vector-effect="non-scaling-stroke"
   cx="0"
   cy="0"
   r="4.8499999"
   id="circle6591" />
</g>
		<g
   transform="translate(110.62,26.87)"
   id="g6597">
<circle
   style="opacity:1;fill:none;fill-rule:nonzero;stroke:#263238;stroke-width:1;stroke-linecap:butt;stroke-linejoin:miter;stroke-miterlimit:10;stroke-dasharray:none;stroke-dashoffset:0"
   vector-effect="non-scaling-stroke"
   cx="0"
   cy="0"
   r="4.8499999"
   id="circle6595" />
</g>
		<g
   transform="translate(79.81,-20.73)"
   id="g6601">
<path
   style="opacity:1;fill:none;fill-rule:nonzero;stroke:#263238;stroke-width:1;stroke-linecap:butt;stroke-linejoin:miter;stroke-miterlimit:10;stroke-dasharray:none;stroke-dashoffset:0"
   vector-effect="non-scaling-stroke"
   transform="translate(-444.7,-219.9)"
   d="m 451.33,227.77 c -4.01874,3.38889 -9.94569,3.20376 -13.74508,-0.42934 -3.7994,-3.6331 -4.24944,-9.54584 -1.04368,-13.71213 3.20576,-4.16628 9.03641,-5.24633 13.52176,-2.50471 4.48535,2.74162 6.18301,8.42326 3.937,13.17618"
   stroke-linecap="round"
   id="path6599" />
</g>
		<g
   transform="translate(157.81,-30.58)"
   id="g6605">
<circle
   style="opacity:1;fill:none;fill-rule:nonzero;stroke:#263238;stroke-width:1;stroke-linecap:butt;stroke-linejoin:miter;stroke-miterlimit:10;stroke-dasharray:none;stroke-dashoffset:0"
   vector-effect="non-scaling-stroke"
   cx="0"
   cy="0"
   r="4.46"
   id="circle6603" />
</g>
		<g
   transform="translate(-14.07,-1.55)"
   id="g6609">
<path
   style="opacity:1;fill:none;fill-rule:nonzero;stroke:#263238;stroke-width:1;stroke-linecap:butt;stroke-linejoin:miter;stroke-miterlimit:10;stroke-dasharray:none;stroke-dashoffset:0"
   vector-effect="non-scaling-stroke"
   transform="translate(-350.82,-239.09)"
   d="m 465.35,198.16 6.94,22.63 m 33.09,-14.74 8.36,-8.78 m -26.44,27.78 15.82,-16.62 m -18.38,35.04 28.33,32.66 m -66.99,-21.29 21.06,-12.99 m -227.25,-0.53 c -1.17,-5.94 -1.93,-7.19 -6.53,-10.75 l 13.51,-23.37 c 10.2,3.44 22.23,24 19.91,34.12 z M 221,251.92 c 4.71,2.18 6.19,2.22 12.32,0.4 l 13.52,23.39 c -11.53,7.08 -28.14,6.88 -39.39,-0.35 z m -13.55,-44.41 c 4.5,7.78 9,15.58 13.36,23.12 -1.47267,1.50011 -2.81112,3.12632 -4,4.86 -0.86718,1.8803 -1.56333,3.83486 -2.08,5.84 H 188 c -1.26,-11.57 9,-29.51 19.45,-33.82 z m 19.93,41.91 c -4.25751,-0.17819 -7.60869,-3.69698 -7.57904,-7.95811 0.0296,-4.26114 3.42946,-7.73296 7.68904,-7.85189 2.89064,-0.0807 5.59494,1.42243 7.0525,3.92 1.45755,2.49757 1.43603,5.59146 -0.0561,8.06851 -1.49217,2.47705 -4.21712,3.94241 -7.10636,3.82149 z"
   stroke-linecap="round"
   id="path6607" />
</g>
		<g
   transform="matrix(0.81,0,0,0.81,-172.38056,-111.97975)"
   id="g6613">
<path
   style="opacity:1;fill:#ffffff;fill-rule:nonzero;stroke:#263238;stroke-width:1;stroke-linecap:round;stroke-linejoin:round;stroke-miterlimit:4;stroke-dasharray:none;stroke-dashoffset:0"
   vector-effect="non-scaling-stroke"
   transform="translate(-150.68,-99.84)"
   d="m 121.19,92.56 c 4,8.44 15.68,14.56 29.48,14.56 13.8,0 25.5,-6.12 29.49,-14.56 z"
   stroke-linecap="round"
   id="path6611" />
</g>
		<g
   transform="matrix(0.81,0,0,0.81,-172.59056,-128.11845)"
   id="g6617">
<path
   style="opacity:1;fill:#263238;fill-rule:nonzero;stroke:#263238;stroke-width:1;stroke-linecap:round;stroke-linejoin:round;stroke-miterlimit:4;stroke-dasharray:none;stroke-dashoffset:0"
   vector-effect="non-scaling-stroke"
   transform="translate(-150.52,-85.39)"
   d="m 100.76,95.8 h 99.52 L 150.52,74.99 Z"
   stroke-linecap="round"
   id="path6615" />
</g>
		<g
   transform="matrix(0.81,0,0,0.81,-172.44056,-132.00975)"
   id="g6621">
<path
   style="opacity:1;fill:#263238;fill-rule:nonzero;stroke:#263238;stroke-width:1;stroke-linecap:round;stroke-linejoin:round;stroke-miterlimit:4;stroke-dasharray:none;stroke-dashoffset:0"
   vector-effect="non-scaling-stroke"
   transform="translate(-150.52,-75.26)"
   d="m 136.41,67.07 h 28.22 v 16.38 h -28.22 z"
   stroke-linecap="round"
   id="path6619" />
</g>
		<g
   transform="matrix(0.81,0,0,0.81,-172.37056,-154.66975)"
   id="g6625">
<path
   style="opacity:1;fill:none;fill-rule:nonzero;stroke:#263238;stroke-width:4;stroke-linecap:round;stroke-linejoin:round;stroke-miterlimit:4;stroke-dasharray:none;stroke-dashoffset:0"
   vector-effect="non-scaling-stroke"
   transform="translate(-150.52,-47.5)"
   d="M 150.52,67.98 V 27.02"
   stroke-linecap="round"
   id="path6623" />
</g>
		<g
   transform="matrix(0.81,0,0,0.81,153.50112,-111.97975)"
   id="g6629">
<path
   style="opacity:1;fill:#ffffff;fill-rule:nonzero;stroke:#263238;stroke-width:1;stroke-linecap:round;stroke-linejoin:round;stroke-miterlimit:4;stroke-dasharray:none;stroke-dashoffset:0"
   vector-effect="non-scaling-stroke"
   transform="translate(-567.6,-99.84)"
   d="m 538.12,92.56 c 4,8.44 15.67,14.56 29.48,14.56 13.81,0 25.5,-6.12 29.48,-14.56 z"
   stroke-linecap="round"
   id="path6627" />
</g>
		<g
   transform="matrix(0.81,0,0,0.81,153.29112,-123.75975)"
   id="g6633">
<path
   style="opacity:1;fill:#263238;fill-rule:nonzero;stroke:#263238;stroke-width:1;stroke-linecap:round;stroke-linejoin:round;stroke-miterlimit:4;stroke-dasharray:none;stroke-dashoffset:0"
   vector-effect="non-scaling-stroke"
   transform="translate(-567.45,-85.39)"
   d="m 517.69,95.8 h 99.52 L 567.45,74.99 Z"
   stroke-linecap="round"
   id="path6631" />
</g>
		<g
   transform="matrix(0.81,0,0,0.81,153.44112,-132.00975)"
   id="g6637">
<path
   style="opacity:1;fill:#263238;fill-rule:nonzero;stroke:#263238;stroke-width:1;stroke-linecap:round;stroke-linejoin:round;stroke-miterlimit:4;stroke-dasharray:none;stroke-dashoffset:0"
   vector-effect="non-scaling-stroke"
   transform="translate(-567.45,-75.26)"
   d="m 553.34,67.07 h 28.22 v 16.38 h -28.22 z"
   stroke-linecap="round"
   id="path6635" />
</g>
		<g
   transform="matrix(0.81,0,0,0.81,153.51112,-154.66975)"
   id="g6641">
<path
   style="opacity:1;fill:none;fill-rule:nonzero;stroke:#263238;stroke-width:4;stroke-linecap:round;stroke-linejoin:round;stroke-miterlimit:4;stroke-dasharray:none;stroke-dashoffset:0"
   vector-effect="non-scaling-stroke"
   transform="translate(-567.45,-47.5)"
   d="M 567.45,67.98 V 27.02"
   stroke-linecap="round"
   id="path6639" />
</g>
<path
   style="fill:#000000;fill-opacity:1;fill-rule:evenodd;stroke:#000000;stroke-width:1.11448;stroke-linecap:round;stroke-dasharray:none;stroke-opacity:1"
   d="M -391.87344,189.59356 H 386.92822"
   id="path7713" /></g>
</g>
</svg>
