<svg xmlns="http://www.w3.org/2000/svg" viewBox="0 0 559720 208823.05"><path d="M721.96 414.38C787.804 268.849 691.284 100.4 536.227 87.386a496.947 515.675 0 0 0-54.29-1.462c-157.465 4.615-207.718 54.2-246.82 62.268-39.101 8.067-126.188-24.244-169.746 9.197-43.558 33.441-96.57 186.523-.82 296.22 95.75 109.697 290.179-4.148 378.335 6.916 88.155 11.064 150.69 55.497 215.512 26.67 24.282-10.815 47.006-36.22 63.564-72.813z" style="display:inline;fill:#f0f0f0;fill-opacity:1;stroke-width:1.01793" transform="matrix(1.01945 0 0 .89367 -836.936 -21647.776)"/><path d="M13.52 437.95h720.64" style="fill:none;stroke:#263238;stroke-linecap:round;stroke-linejoin:round" transform="translate(-826.933 -21660.359) scale(.99927)"/><path d="M342.28 426.91h17.85v4.61h-17.85zM347.39 389.48h7.64v37.43h-7.64z" style="fill:#fff;stroke:#263238;stroke-linecap:round;stroke-linejoin:round" transform="translate(-826.933 -21660.359) scale(.99927)"/><path d="M344.87 388.05h12.68v12.41h-12.68zM329.36 431.24h43.7a5 5 0 0 1 5 5V438h-53.7v-1.71a5 5 0 0 1 5-5.05z" style="fill:#fff;stroke:#263238;stroke-linecap:round;stroke-linejoin:round" transform="translate(-826.933 -21660.359) scale(.99927)"/><path d="M354.76 380.64c0 4.07-1.59 7.36-3.55 7.36-1.96 0-3.55-3.29-3.55-7.36s2.13-11.8 3.55-11.8 3.55 7.73 3.55 11.8z" style="fill:#0a3d62;stroke:#263238;stroke-linecap:round;stroke-linejoin:round" transform="translate(-826.933 -21660.359) scale(.99927)"/><path d="M353.69 383.71c0 2.37-1.11 4.29-2.48 4.29-1.37 0-2.49-1.92-2.49-4.29s1.49-6.88 2.49-6.88c1 0 2.48 4.51 2.48 6.88z" style="fill:#fff;stroke:#263238;stroke-linecap:round;stroke-linejoin:round" transform="translate(-826.933 -21660.359) scale(.99927)"/><path d="M354.99 409.29h3.37v8.16h-3.37z" style="fill:#263238;stroke:#263238;stroke-linecap:round;stroke-linejoin:round" transform="translate(-826.933 -21660.359) scale(.99927)"/><g transform="translate(-826.933 -21660.359) scale(.99927)"><path d="m146.18 364 6.2-1.34-.87 3.53-3.1.67z" style="fill:#fff;stroke:#263238;stroke-linecap:round;stroke-linejoin:round"/><path d="M144.49 348.33h6.34v14.99h-6.34z" style="fill:#fff;stroke:#263238;stroke-linecap:round;stroke-linejoin:round" transform="rotate(-12.16 147.631 355.78)"/><path d="m137.92 361.25 5.67 2.84-2.89 2.22-2.83-1.43z" style="fill:#fff;stroke:#263238;stroke-linecap:round;stroke-linejoin:round"/><path d="M141.02 348.31h6.34v14.99h-6.34z" style="fill:#fff;stroke:#263238;stroke-linecap:round;stroke-linejoin:round" transform="rotate(26.65 144.21 355.843)"/><path d="m129.11 357.29 5.67 2.84-2.89 2.22-2.83-1.42z" style="fill:#fff;stroke:#263238;stroke-linecap:round;stroke-linejoin:round"/><path d="M132.21 344.36h6.34v14.99h-6.34z" style="fill:#fff;stroke:#263238;stroke-linecap:round;stroke-linejoin:round" transform="rotate(26.65 135.382 351.892)"/><path d="M89.55 392.04h47.27v11.51H89.55z" style="fill:#263238;stroke:#263238;stroke-linecap:round;stroke-linejoin:round"/><path d="M100.87 418h68.76a8.13 8.13 0 0 1 8.13 8.13V438h-76.89z" style="fill:#fff;stroke:#263238;stroke-linecap:round;stroke-linejoin:round"/><path d="M177.15 427.95h-56.57" style="fill:none;stroke:#263238;stroke-linecap:round;stroke-linejoin:round"/><path d="M89.55 392.04h30.87v45.91H89.55zM161.22 319.1l59.97-23.85 2.5 6.31-59.98 23.85z" style="fill:#263238;stroke:#263238;stroke-linecap:round;stroke-linejoin:round"/><path d="M199.73 302.39h3.33v8.91h-3.33z" style="fill:#fff;stroke:#263238;stroke-linecap:round;stroke-linejoin:round" transform="rotate(-21.59 201.453 306.917)"/><path d="M161.48 310.49h28.06v13.2h-28.06z" style="fill:#263238;stroke:#263238;stroke-linecap:round;stroke-linejoin:round" transform="rotate(-21.6 175.473 317.046)"/><path d="m174.18 330.94-8.61 12.63-34.45 1.14-41.62 72.62s-12.91-19.8-12.91-29.27v-.29a37.63 37.63 0 0 1 6.6-21.07L120.5 312h43.63z" style="fill:#fff;stroke:#263238;stroke-linecap:round;stroke-linejoin:round"/><path d="M174.18 330.94h-65.73" style="fill:none;stroke:#263238;stroke-linecap:round;stroke-linejoin:round"/><path d="M133.13 305.05h21.53v6.89h-21.53zM89.69 391.51a5.47 5.47 0 0 1-4.7-8.28l21.51-36a5.473 5.473 0 1 1 9.4 5.61l-21.5 36a5.48 5.48 0 0 1-4.71 2.67zM130.09 346.51l7.85-13.07 27.63 10.13-7.87 13.99zM125.51 377.85h43.89v3.39h-43.89z" style="fill:#263238;stroke:#263238;stroke-linecap:round;stroke-linejoin:round"/><path d="M125.51 381.39h28.37v10.17h-28.37z" style="fill:#fff;stroke:#263238;stroke-linecap:round;stroke-linejoin:round"/><circle cx="112.22" cy="406.31" r="10.17" style="fill:#fff;stroke:#263238;stroke-linecap:round;stroke-linejoin:round" transform="rotate(-9.51 112.24 406.444)"/><path d="M134.09 397.45a4.49 4.49 0 1 0-4.49 4.5 4.49 4.49 0 0 0 4.49-4.5z" style="fill:#fff;stroke:#263238;stroke-linecap:round;stroke-linejoin:round"/></g><g transform="translate(-801.414 -21660.864) scale(.99927)"><path d="M573.4 194.51v-3.79a3.51 3.51 0 0 1 3.51-3.51h25" style="fill:none;stroke:#263238;stroke-width:4px;stroke-miterlimit:10"/><path d="M548.26 251.65a5.65 5.65 0 0 0 2.77 1.86c5.88 2.3 11.5 5.11 17.21 7.67l-18.79 8.44a2.2 2.2 0 0 0-1.45 1.9 2.14 2.14 0 0 0 1.43 2.21l18.81 8.44-18.79 8.43a2.22 2.22 0 0 0-1.45 1.86 2.13 2.13 0 0 0 1.43 2.18l20.9 9.38v29.56h6v-21c0-2.71.95-5.43.26-8.13-1-4-6-5.61-10.17-7.45l-9.51-4.21-.31-.14 18.27-8.19c1.4-.63 2.65-1.12 2.37-2.61-.34-1.79-3.75-2.52-5.52-3.33l-6.26-2.81-6.16-2.76a16.46 16.46 0 0 0-2.77-1.25l7.5-3.36 5.87-2.64c1.3-.58 2.54-1.25 3.87-1.79 1.13-.45 2.73-1.07 3.31-2 .78-1.25-.79-2.24-2.05-2.85-1.72-.82-3.52-1.6-5.27-2.39l-6-2.68-5.28-2.37a13.32 13.32 0 0 0-2.2-1q9.2-4.12 18.42-8.24l.16-.07c1.5-.69 2.75-1.56 2.22-3-.64-1.69-3.48-2.11-5.26-2.91l-5.75-2.58-9.17-4.12-.11-.05 8.8-3.95c2.31-1 4.79-1.66 7.11-2.71 2.6-1.17 4.23-2 4.23-4.73v-10.43h-6v10.23c0 .47-5.19 2.33-5.74 2.58-4.69 2.11-9.43 4.15-14.18 6.19a8.49 8.49 0 0 0-2.21 1.19c-1.37 1.16-.89 2.72.64 3.64a47.75 47.75 0 0 0 4.61 2l6.2 2.78 5.6 2.51a14 14 0 0 0 2.36 1.06c-6 2.71-12.08 5.36-18.07 8.11-1.64.76-2.82 2.03-1.88 3.53z" style="fill:#fff;stroke:#263238;stroke-linecap:round;stroke-linejoin:round"/><path d="m556.82 229.64-4.03 1.39M568.24 240l3.69-1.93M556.31 250.59l-3.52 1.56M568.24 261.18l4.01-1.75M556.53 271.67l-3.12 1.61M568.24 282.17l3.69-1.85" style="fill:none;stroke:#263238;stroke-miterlimit:10"/><path d="M581.53 194.65h-15.14v2.83h2.2v8.33c0 1.13 1.23 2.05 2.74 2.05h5.25c1.51 0 2.74-.92 2.74-2.05v-8.33h2.21z" style="fill:#fff;stroke:#263238;stroke-linecap:round;stroke-linejoin:round"/><path d="M606.52 149.2h11.14v5.2h-11.14z" style="fill:#263238;stroke:#263238;stroke-miterlimit:10"/><path d="M597.17 181.71h7.31v12.62h-7.31z" style="fill:#fff;stroke:#263238;stroke-miterlimit:10"/><path d="M640.69 232.57h-20.28v-63.69a8.32 8.32 0 0 0-4.38-7.33v-7.28h-7.87v7.28a8.33 8.33 0 0 0-4.39 7.33v78.61a8.32 8.32 0 1 0 16.64 0v-10h22.37a29.11 29.11 0 0 1-2.09-4.92z" style="fill:#fff;stroke:#263238;stroke-linecap:round;stroke-linejoin:round"/><path d="M614.77 220.37c-.11-.81-1.22-1.14-1.79-1.51l-2-1.27-2.9-1.81 2.44-1.52 1.91-1.2c.42-.26.82-.56 1.26-.8a2.44 2.44 0 0 0 1.07-.92c.25-.56-.26-1-.67-1.28-.41-.28-1.14-.73-1.71-1.09l-1.94-1.21-1.71-1.07a4.05 4.05 0 0 0-.72-.45l6-3.72h.06c.49-.32.89-.71.72-1.35-.17-.64-1.13-1-1.71-1.32l-1.87-1.17-3-1.88L611 195c.75-.47 1.55-.75 2.3-1.22.75-.47 1.38-.89 1.38-2.14v-2.89a1.83 1.83 0 0 0-1.83-1.83h-9.09v2.39h7.14a1.83 1.83 0 0 1 1.83 1.83v.41c0 .21-1.69 1.06-1.86 1.17q-2.29 1.43-4.61 2.8a2.72 2.72 0 0 0-.72.54 1.13 1.13 0 0 0 .21 1.64 14 14 0 0 0 1.49.9l2 1.26 1.82 1.14c.06 0 .7.52.77.48-2 1.22-3.93 2.42-5.87 3.66a1.25 1.25 0 0 0-.63 1.6 2 2 0 0 0 .9.84c1.92 1.05 3.74 2.32 5.6 3.47l-6.11 3.82a1.15 1.15 0 0 0 0 1.86l6.11 3.81-6.11 3.82a1 1 0 0 0-.47.84 1 1 0 0 0 .47 1l6.79 4.25v13.37h2v-9.52a20.46 20.46 0 0 0 .08-3.67c-.32-1.79-1.95-2.54-3.3-3.37l-3.09-1.9-.1-.07 5.93-3.7c.43-.33.83-.59.74-1.22z" style="fill:#fff;stroke:#263238;stroke-miterlimit:10"/><path d="M664.29 171.56h8.39v19.47h-8.39z" style="fill:#263238;stroke:#263238;stroke-linecap:round;stroke-linejoin:round"/><path d="M675 195.14V180.2h-12.88v14.94a29.23 29.23 0 0 0-.8 56.84v12.36a3 3 0 0 0 3 3.05h8.33a3.06 3.06 0 0 0 3-3.05V252a29.23 29.23 0 0 0-.8-56.84z" style="fill:#fff;stroke:#263238;stroke-linecap:round;stroke-linejoin:round"/><path d="M659.81 176.09h17.41v6.57h-17.41z" style="fill:#0a3d62;stroke:#263238;stroke-linecap:round;stroke-linejoin:round"/><path d="m597.49 378.51-14.32-55.61v-15.2H562.9v15.2l-14.31 55.61a5.9 5.9 0 0 0 5.71 7.37h37.48a5.9 5.9 0 0 0 5.71-7.37z" style="fill:#fff;stroke:#263238;stroke-linecap:round;stroke-linejoin:round"/><path d="M585.77 350.41h-25.46l-7.52 29.18a1.52 1.52 0 0 0 .28 1.34 1.5 1.5 0 0 0 1.23.6h37.48a1.54 1.54 0 0 0 1.5-1.94z" style="fill:#2b8153;fill-opacity:1;stroke:#263238;stroke-linecap:round;stroke-linejoin:round"/><path d="M536.7 385.97h73.76v7.44H536.7z" style="fill:#263238;stroke:#263238;stroke-linecap:round;stroke-linejoin:round"/><path d="m545.38 392.78-8.06 44.02M601.78 392.78l8.06 44.02" style="fill:none;stroke:#263238;stroke-width:3px;stroke-linecap:round;stroke-linejoin:round"/><path d="M682.7 275.67v-11.81a5.61 5.61 0 0 0-5.61-5.61h-16.42a5.61 5.61 0 0 0-5.61 5.61v11.44a29.22 29.22 0 1 0 27.64.37z" style="fill:#fff;stroke:#263238;stroke-linecap:round;stroke-linejoin:round"/><circle cx="668.44" cy="385.01" r="52.07" style="fill:#fff;stroke:#263238;stroke-linecap:round;stroke-linejoin:round" transform="rotate(-63.94 668.467 385.014)"/><path d="M656.2 328.32h23.67v5.17H656.2z" style="fill:#0a3d62;stroke:#263238;stroke-linecap:round;stroke-linejoin:round"/><path d="M620.37 378a48.5 48.5 0 1 0 96.36 0z" style="fill:#f6ad55;fill-opacity:1;stroke:#263238;stroke-linecap:round;stroke-linejoin:round"/><path d="M661.93 401.52a3.63 3.63 0 1 1-3.63-3.62 3.64 3.64 0 0 1 3.63 3.62zM647.44 403.79a3.17 3.17 0 1 1-3.17-3.17 3.17 3.17 0 0 1 3.17 3.17zM667.81 389.07a2.94 2.94 0 1 1-2.94-2.94 2.94 2.94 0 0 1 2.94 2.94z" style="fill:none;stroke:#263238;stroke-miterlimit:10"/><circle cx="672.11" cy="406.73" r="2.49" style="fill:none;stroke:#263238;stroke-miterlimit:10"/><path d="M654.23 417.14a2 2 0 1 1-2-2 2 2 0 0 1 2 2z" style="fill:none;stroke:#263238;stroke-miterlimit:10"/></g><path d="M217.78 420.58h6.42v4.19h-6.42z" style="fill:#fff;stroke:#263238;stroke-linecap:round;stroke-linejoin:round" transform="translate(-826.933 -21660.359) scale(.99927)"/><path d="M200.19 421.96h86.1l10.76 15.99H189.43zM203.26 411.39h80.24v10.3h-80.24z" style="fill:#fff;stroke:#263238;stroke-linecap:round;stroke-linejoin:round" transform="translate(-826.933 -21660.359) scale(.99927)"/><path d="M208.92 418.09h6.1v3.7h-6.1zM271.43 418.09h6.1v3.7h-6.1z" style="fill:#263238;stroke:#263238;stroke-linecap:round;stroke-linejoin:round" transform="translate(-826.933 -21660.359) scale(.99927)"/><path d="M243.46 402.84h6.23v4.07h-6.23z" style="fill:#fff;stroke:#263238;stroke-linecap:round;stroke-linejoin:round" transform="translate(-826.933 -21660.359) scale(.99927)"/><path d="M240.64 352.1h7.89v8.38h-7.89z" style="fill:#263238;stroke:#263238;stroke-linecap:round;stroke-linejoin:round" transform="translate(-826.933 -21660.359) scale(.99927)"/><path d="m266.07 406.08-17.48-32.51v-15.31h-8.13v15.31L223 406.08a3.61 3.61 0 0 0 3.32 5h36.46a3.61 3.61 0 0 0 3.29-5z" style="fill:#fff;stroke:#263238;stroke-linecap:round;stroke-linejoin:round" transform="translate(-826.933 -21660.359) scale(.99927)"/><path d="M256.88 394.85h-24.7l-5.18 9.73a3 3 0 0 0 2.7 4.11h29.7a3 3 0 0 0 2.71-4.11z" style="fill:#65c9ff;fill-opacity:1;stroke:#263238;stroke-linecap:round;stroke-linejoin:round" transform="translate(-826.933 -21660.359) scale(.99927)"/><path d="M341.04 269.31h20.55v6.84h-20.55z" style="fill:#263238;stroke:#263238;stroke-linecap:round;stroke-linejoin:round" transform="translate(-826.933 -21660.359) scale(.99927)"/><path d="M361.41 292.89v-16.74H341v16.74a26.25 26.25 0 0 0-16 24.19c0 11.43 16.3 28.05 23.18 34.56a4.38 4.38 0 0 0 6 0c6.89-6.51 23.18-23.13 23.18-34.56a26.25 26.25 0 0 0-15.95-24.19z" style="fill:#fff;stroke:#263238;stroke-linecap:round;stroke-linejoin:round" transform="translate(-826.933 -21660.359) scale(.99927)"/><path d="M329 320.62c2.78 9.52 14.31 21.24 19.56 26.2a3.81 3.81 0 0 0 5.24 0c5.25-5 16.79-16.68 19.56-26.2z" style="fill:#0a3d62;stroke:#263238;stroke-linecap:round;stroke-linejoin:round" transform="translate(-826.933 -21660.359) scale(.99927)"/><path d="M320.1 326.89h72.53v4.29H320.1z" style="fill:#fff;stroke:#263238;stroke-linecap:round;stroke-linejoin:round" transform="translate(-826.933 -21660.359) scale(.99927)"/><path d="M315.92 330.86h196.24v4.29H315.92z" style="fill:#fff;stroke:#263238;stroke-linecap:round;stroke-linejoin:round" transform="rotate(90 10830.45 -10910.885) scale(.99927)"/><path d="M392.63 329.03h39.81" style="fill:none;stroke:#263238;stroke-width:2px;stroke-linecap:round;stroke-linejoin:round" transform="translate(-826.933 -21660.359) scale(.99927)"/><path d="M420.29 329.39a6.43 6.43 0 1 0-6.43 6.43 6.43 6.43 0 0 0 6.43-6.43zM383.12 430.22h60.91v7.73h-60.91z" style="fill:#263238;stroke:#263238;stroke-linecap:round;stroke-linejoin:round" transform="translate(-826.933 -21660.359) scale(.99927)"/><path d="M244.59 356.29v-1.57a12.47 12.47 0 0 1 12.47-12.47h34.51a11.17 11.17 0 0 0 11.17-11.17v-66.27a9.79 9.79 0 0 1 9.8-9.79H343a9 9 0 0 1 9 9v8.7" style="fill:none;stroke:#263238;stroke-width:4px;stroke-linecap:round;stroke-linejoin:round" transform="translate(-826.933 -21660.359) scale(.99927)"/><path d="M315.08 407.79v-51.13h-10.8v51.13a15.57 15.57 0 1 0 10.8 0z" style="fill:#fff;stroke:#263238;stroke-miterlimit:10" transform="translate(-826.933 -21660.359) scale(.99927)"/><path d="M296.35 418.44a13.91 13.91 0 1 0 26.66 0z" style="fill:#0a3d62;stroke:#263238;stroke-linecap:round;stroke-linejoin:round" transform="translate(-826.933 -21660.359) scale(.99927)"/><path d="M467.1 381h8.68v50.65a4 4 0 0 1-4 4h-.62a4 4 0 0 1-4-4V381Z" style="fill:#fff;stroke:#263238;stroke-linecap:round;stroke-linejoin:round" transform="translate(-826.933 -21660.359) scale(.99927)"/><path d="M467.1 397.52v33.86a4.35 4.35 0 0 0 8.69 0v-33.86z" style="fill:#f6ad55;fill-opacity:1;stroke:#263238;stroke-linecap:round;stroke-linejoin:round" transform="translate(-826.933 -21660.359) scale(.99927)"/><path d="M465.57 379.76h11.75v8.17h-11.75z" style="fill:#263238;stroke:#263238;stroke-linecap:round;stroke-linejoin:round" transform="translate(-826.933 -21660.359) scale(.99927)"/><path d="M488.33 435.72v0a4.34 4.34 0 0 1-4.34-4.34V381h8.69v50.34a4.34 4.34 0 0 1-4.35 4.38z" style="fill:#fff;stroke:#263238;stroke-linecap:round;stroke-linejoin:round" transform="translate(-826.933 -21660.359) scale(.99927)"/><path d="M484 397.52v33.86a4.35 4.35 0 0 0 8.69 0v-33.86z" style="fill:#0a3d62;stroke:#263238;stroke-linecap:round;stroke-linejoin:round" transform="translate(-826.933 -21660.359) scale(.99927)"/><path d="M482.46 379.76h11.75v8.17h-11.75zM505.22 435.72v0a4.34 4.34 0 0 1-4.34-4.34V381h8.68v50.34a4.34 4.34 0 0 1-4.34 4.38z" style="fill:#fff;stroke:#263238;stroke-linecap:round;stroke-linejoin:round" transform="translate(-826.933 -21660.359) scale(.99927)"/><path d="M500.88 397.52v33.86a4.34 4.34 0 0 0 4.34 4.34v0a4.34 4.34 0 0 0 4.34-4.34v-33.86z" style="fill:#2b8153;fill-opacity:1;stroke:#263238;stroke-linecap:round;stroke-linejoin:round" transform="translate(-826.933 -21660.359) scale(.99927)"/><path d="M499.35 379.76h11.75v8.17h-11.75z" style="fill:#263238;stroke:#263238;stroke-linecap:round;stroke-linejoin:round" transform="translate(-826.933 -21660.359) scale(.99927)"/><path d="M522.11 435.72v0a4.34 4.34 0 0 1-4.34-4.34V381h8.68v50.34a4.34 4.34 0 0 1-4.34 4.38z" style="fill:#fff;stroke:#263238;stroke-linecap:round;stroke-linejoin:round" transform="translate(-826.933 -21660.359) scale(.99927)"/><path d="M517.77 397.52v33.86a4.34 4.34 0 0 0 8.68 0v-33.86z" style="fill:#65c9ff;fill-opacity:1;stroke:#263238;stroke-linecap:round;stroke-linejoin:round" transform="translate(-826.933 -21660.359) scale(.99927)"/><path d="M516.24 379.76h11.75v8.17h-11.75zM456.03 437.95h84.44v-45.61H459.7v2.57h75.63v36.8h-79.3z" style="fill:#fff;stroke:#263238;stroke-linecap:round;stroke-linejoin:round" transform="translate(-826.933 -21660.359) scale(.99927)"/><path d="m57.07 240.66.08-.03 1.65-5.95H32.33l2.01 6.07v196.62h22.73z" style="fill:#fff;stroke:#263238;stroke-miterlimit:10" transform="translate(-826.933 -21660.359) scale(.99927)"/><path d="M25.24 432.66h40.94v5.29H25.24z" style="fill:#fff;stroke:#263238;stroke-miterlimit:10" transform="translate(-826.933 -21660.359) scale(.99927)"/><path d="M37.62 250.21h4.94M37.62 257.98h4.94M37.62 265.74h4.94M37.62 273.5h4.94M37.62 281.27h4.94M37.62 289.03h4.94M37.62 296.79h4.94M37.62 304.56h4.94M37.62 312.32h4.94M37.62 320.09h4.94M37.62 327.85h4.94M37.62 335.61h4.94M37.62 343.38h4.94M37.62 351.14h4.94M37.62 358.9h4.94M37.62 366.67h4.94M37.62 374.43h4.94M37.62 382.2h4.94M37.62 389.96h4.94M37.62 397.72h4.94M37.62 405.49h4.94M37.62 413.25h4.94M37.62 421.02h4.94M37.62 428.78h4.94" style="fill:none;stroke:#263238;stroke-linecap:round;stroke-linejoin:round" transform="translate(-826.933 -21660.359) scale(.99927)"/><g transform="translate(-809.371 -21652.103) scale(.99927)"><path d="m70.39 168.6 6.94 12.03h24.31l12.15-21.05-12.15-21.05H77.33l-12.15 21.05 3.53 6.11M129.39 201.89h8.68l12.15-21.05-12.15-21.05h-24.31l-12.15 21.05 12.15 21.05h12.46M77.15 180.64 65 201.69l12.15 21.05h24.31l12.15-21.05-12.15-21.05zM138.07 159.79l6.23-13.41M138.07 201.89l10.33 19.76M65.18 159.58H44.43M114.15 120.81l2.2-3.12M101.64 138.53l10.61-15.03M77.15 222.74 65.3 236.19" style="fill:none;stroke:#263238;stroke-miterlimit:10"/><path d="M299.685 103.682a7.85 7.85 0 1 0 7.84 7.85 7.85 7.85 0 0 0-7.84-7.85z" style="fill:#263238"/><path d="M339.056 121.78a3.598 3.328 0 0 0-3.597-3.327 3.598 3.328 0 0 0-1.17.19 69.875 64.634 0 0 0-3.597-6.388c8.41-13.12 10.262-25.79 3.445-32.08-4.21-3.894-11.036-4.734-18.987-2.97-4.272-6.448-9.74-10.325-15.695-10.325a14.085 13.028 0 0 0-7.743 2.205 3.615 3.344 0 1 0-5.298 4.55 35.185 32.546 0 0 0-2.698 3.545c-7.95-1.764-14.777-.924-18.987 2.97-6.817 6.297-4.964 18.943 3.427 32.055a62.4 57.72 0 0 0-5.621 11.131 36.876 34.11 0 0 0-1.97 8.993 3.623 3.351 0 0 0 .297 6.698 4.236 3.918 0 0 0 .486-.042 13.725 12.696 0 0 0 3.381 5.325c2.789 2.587 6.755 3.893 11.585 3.893a31.776 29.393 0 0 0 7.42-.89c4.272 6.423 9.731 10.283 15.676 10.283 5.946 0 11.432-3.877 15.704-10.325a32.379 29.95 0 0 0 7.43.89c4.721 0 8.723-1.24 11.548-3.851 4.56-4.218 5.243-11.265 2.698-19.402a3.598 3.328 0 0 0 2.266-3.128zm-16.576-44.7c4.497 0 8.302 1.173 10.973 3.644 6.485 5.998 4.704 18.061-3.319 30.699a85.516 79.102 0 0 0-6.494-8.486c-1.133-9.925-4.038-18.66-8.094-25.059a30.823 28.51 0 0 1 6.934-.798zm-6.206 50.749a89.779 83.045 0 0 1-16.864 12.362 90.174 83.411 0 0 1-16.863-12.354 95.76 88.578 0 0 1-6.503-6.656 96.66 89.41 0 0 1 0-17.903 94.752 87.646 0 0 1 6.503-6.656 89.68 82.954 0 0 1 16.863-12.338 89.68 82.954 0 0 1 16.864 12.338 94.024 86.972 0 0 1 6.503 6.656 96.66 89.41 0 0 1 0 17.903 95.76 88.578 0 0 1-6.503 6.64zm6.296-5.15c-1.214 9.41-4.03 17.67-7.888 23.694a57.31 53.012 0 0 1-14.39-5.707 91.047 84.218 0 0 0 16.603-12.255 91.208 91.208 0 0 0 5.693-5.74zm-24.023 17.97a61.205 56.614 0 0 1-11.45 4.9 62.106 62.106 0 0 1-3.003.832c-3.85-6.023-6.665-14.276-7.88-23.686 1.8 1.939 3.652 3.86 5.676 5.74a90.957 84.135 0 0 0 16.675 12.206zM275.01 120a83.888 77.596 0 0 1-5.838-7.779 84.346 78.02 0 0 1 5.847-7.778 81.003 81.003 0 0 0-.378 7.787c0 2.653.153 5.233.387 7.762zm1.205-18.228c1.214-9.401 4.03-17.654 7.879-23.677a56.717 52.463 0 0 1 14.435 5.715 90.183 83.42 0 0 0-16.639 12.23q-2.986 2.787-5.657 5.724zm24.04-17.962a56.717 52.463 0 0 1 14.436-5.715c3.85 6.023 6.665 14.276 7.88 23.685-1.8-1.946-3.652-3.868-5.676-5.74a90.48 83.694 0 0 0-16.621-12.238Zm23.53 20.608a84.463 78.128 0 0 1 5.837 7.778 83.339 77.088 0 0 1-5.838 7.77c.243-2.495.378-5.116.378-7.77a81.76 81.76 0 0 0-.378-7.778zm-36.723-30.283a3.598 3.328 0 0 0 1.987.549 3.598 3.328 0 0 0 3.598-3.328 3.598 3.328 0 0 0-.44-1.58 13.203 12.213 0 0 1 7.194-2.064c5.604 0 10.793 3.636 14.832 9.7a58.57 54.177 0 0 0-14.832 5.949 58.704 54.301 0 0 0-14.83-5.949 33.188 30.699 0 0 1 2.49-3.277zm-21.703 6.589c2.698-2.496 6.476-3.644 10.982-3.644a30.823 28.51 0 0 1 6.925.832c-4.047 6.397-6.952 15.133-8.095 25.05a85.704 79.276 0 0 0-6.511 8.477c-7.996-12.67-9.768-24.725-3.301-30.715zm0 62.987a12.78 11.822 0 0 1-3.139-4.934 3.598 3.328 0 0 0-.755-6.43 36.03 33.328 0 0 1 1.924-8.753 61.079 56.498 0 0 1 5.289-10.582 86.622 80.125 0 0 0 6.502 8.494c1.134 9.917 4.039 18.652 8.095 25.05-7.753 1.68-14.049.715-17.916-2.845zm34.051 13.045c-5.594 0-10.73-3.62-14.804-9.651.9-.225 1.799-.483 2.797-.774a62.527 57.837 0 0 0 12.043-5.208 58.731 54.326 0 0 0 14.796 5.932c-4.075 6.065-9.228 9.7-14.832 9.7zm34.043-13.045c-3.957 3.668-10.38 4.467-17.898 2.845 4.047-6.39 6.952-15.125 8.094-25.05a85.596 79.177 0 0 0 6.494-8.494 67.455 62.396 0 0 1 3.328 5.94 3.598 3.328 0 0 0 1.96 6.198 5.306 4.909 0 0 0 .531-.05c2.519 7.829 1.844 14.592-2.509 18.61z" style="fill:#263238;stroke-width:.86502"/><path d="M401.65 168.3c6.1 3.55 13.68 4.64 22.18 3.11a51.66 51.66 0 0 0 12.76-4.08l.16-.08.11-.05.11-.06.15-.07a52.41 52.41 0 0 0 11-7.68c6.37-5.84 10.1-12.52 11-19.53 6.11 3.55 13.69 4.63 22.19 3.11a50.86 50.86 0 0 0 13.28-4.34l-1.85-3.55a44.07 44.07 0 0 1-6 2.38l-12.86-26a45.45 45.45 0 0 1 5.54-3.34l-1.7-3.62a50.76 50.76 0 0 0-11.51 7.94c-6.36 5.83-10.1 12.52-11 19.53-6.11-3.56-13.69-4.64-22.18-3.11a52.17 52.17 0 0 0-12.82 4.14l-.13.06-.11.06-.11.06-.14.06a52.14 52.14 0 0 0-11 7.69c-6.37 5.84-10.1 12.52-11 19.53-6.1-3.55-13.68-4.63-22.18-3.11a51 51 0 0 0-13.29 4.34l1.86 3.55a41.79 41.79 0 0 1 5-2.07l13 26.23a43.39 43.39 0 0 1-4.7 2.77l1.7 3.62a50.82 50.82 0 0 0 11.5-7.94c6.39-5.85 10.16-12.54 11.04-19.55Zm13.56-27.51 12.65 25.55a43 43 0 0 1-9.07 1.64L408.4 147a42.69 42.69 0 0 1 6.81-6.21zm6.54-4.1a37.67 37.67 0 0 1 3.69-1.56l13.12 26.49c-1.83 1.15-3.17 1.84-3.55 2a43.84 43.84 0 0 1-4.85 2l-13-26.21a43.07 43.07 0 0 1 4.59-2.72zm18.8 23.59-12.84-25.93a44.56 44.56 0 0 1 10.33-2l10.39 21a44 44 0 0 1-7.88 6.93zm43.81-22.14a43.37 43.37 0 0 1-7.77 1.36l-10.51-21.22a43.63 43.63 0 0 1 5.79-5.36zm-19.94-17.85L474 139.6a24.46 24.46 0 0 1-15-4.6 24.46 24.46 0 0 1 5.42-14.71zm-9.15 16.56a24.36 24.36 0 0 1-5.2 14.41l-9.41-19a24.32 24.32 0 0 1 14.61 4.59zm-48.52 12.2 9.42 19a24.27 24.27 0 0 1-14.61-4.61 24.3 24.3 0 0 1 5.19-14.39zm-8.91 16.24a24.29 24.29 0 0 1-5.14 14.33l-9.38-18.93a24.2 24.2 0 0 1 14.52 4.6zm-26.51-2.82a43.75 43.75 0 0 1 9.37-1.72l10.35 20.91a43.14 43.14 0 0 1-7 6.43z" style="fill:none;stroke:#263238;stroke-miterlimit:10"/><circle cx="477.01" cy="233.51" r="12.82" style="fill:none;stroke:#263238;stroke-miterlimit:10" transform="rotate(-76.64 477.026 233.51)"/><path d="M525.17 192.28a6.93 6.93 0 1 1-6.93-6.93 6.93 6.93 0 0 1 6.93 6.93zM468.35 194a4.51 4.51 0 1 1-4.51-4.51 4.51 4.51 0 0 1 4.51 4.51z" style="fill:none;stroke:#263238;stroke-miterlimit:10"/><circle cx="517.54" cy="280.29" r="5.54" style="fill:none;stroke:#263238;stroke-miterlimit:10"/><circle cx="442.01" cy="258.11" r="4.85" style="fill:none;stroke:#263238;stroke-miterlimit:10"/><circle cx="475.5" cy="267.51" r="4.85" style="fill:none;stroke:#263238;stroke-miterlimit:10"/><path d="M451.33 227.77a10.29 10.29 0 1 1 2.67-3.47" style="fill:none;stroke:#263238;stroke-miterlimit:10"/><circle cx="522.69" cy="210.06" r="4.46" style="fill:none;stroke:#263238;stroke-miterlimit:10"/><path d="m465.35 198.16 6.94 22.63M505.38 206.05l8.36-8.78M487.3 225.05l15.82-16.62M484.74 243.47l28.33 32.66M446.08 254.84l21.06-12.99M239.89 241.32c-1.17-5.94-1.93-7.19-6.53-10.75l13.51-23.37c10.2 3.44 22.23 24 19.91 34.12zM221 251.92c4.71 2.18 6.19 2.22 12.32.4l13.52 23.39c-11.53 7.08-28.14 6.88-39.39-.35zM207.45 207.51c4.5 7.78 9 15.58 13.36 23.12a36 36 0 0 0-4 4.86 34.5 34.5 0 0 0-2.08 5.84H188c-1.26-11.57 9-29.51 19.45-33.82zM227.38 249.42a7.91 7.91 0 0 1 .11-15.81 7.91 7.91 0 1 1-.11 15.81z" style="fill:none;stroke:#263238;stroke-miterlimit:10"/></g><path d="M121.19 92.56c4 8.44 15.68 14.56 29.48 14.56s25.5-6.12 29.49-14.56z" style="fill:#fff;stroke:#263238;stroke-linecap:round;stroke-linejoin:round" transform="matrix(.81384 0 0 .81384 -744.06 -21637.432)"/><path d="M150.52 74.99 100.76 95.8h99.52z" style="fill:#263238;stroke:#263238;stroke-linecap:round;stroke-linejoin:round" transform="matrix(.81384 0 0 .81384 -744.06 -21637.432)"/><path d="M136.41 67.07h28.22v16.38h-28.22z" style="fill:#263238;stroke:#263238;stroke-linecap:round;stroke-linejoin:round" transform="matrix(.81384 0 0 .81384 -744.06 -21637.432)"/><path d="M150.52 67.98V27.02" style="fill:none;stroke:#263238;stroke-width:4px;stroke-linecap:round;stroke-linejoin:round" transform="matrix(.81384 0 0 .81384 -744.06 -21637.432)"/><path d="M538.12 92.56c4 8.44 15.67 14.56 29.48 14.56s25.5-6.12 29.48-14.56z" style="fill:#fff;stroke:#263238;stroke-linecap:round;stroke-linejoin:round" transform="matrix(.81384 0 0 .81384 -744.06 -21637.432)"/><path d="M567.45 74.99 517.69 95.8h99.52z" style="fill:#263238;stroke:#263238;stroke-linecap:round;stroke-linejoin:round" transform="matrix(.81384 0 0 .81384 -744.06 -21637.432)"/><path d="M553.34 67.07h28.22v16.38h-28.22z" style="fill:#263238;stroke:#263238;stroke-linecap:round;stroke-linejoin:round" transform="matrix(.81384 0 0 .81384 -744.06 -21637.432)"/><path d="M567.45 67.98V27.02" style="fill:none;stroke:#263238;stroke-width:4px;stroke-linecap:round;stroke-linejoin:round" transform="matrix(.81384 0 0 .81384 -744.06 -21637.432)"/></svg>